# Blender 3.3.1
# www.blender.org
mtllib grassPatch.mtl
o Plane.012
v 0.211144 -0.150000 0.176738
v -0.060748 -0.150000 0.049953
v 0.211144 0.150000 0.176738
v -0.060748 0.150000 0.049953
vn 0.4226 -0.0000 -0.9063
vt 0.000100 0.057549
vt 0.999900 0.057549
vt 0.000100 0.997195
vt 0.999900 0.997195
s 0
usemtl grass_Mat
f 1/1/1 2/2/1 4/4/1 3/3/1
o Plane.011
v 0.441119 -0.150000 -0.052127
v 0.169227 -0.150000 -0.178913
v 0.441119 0.150000 -0.052127
v 0.169227 0.150000 -0.178913
vn 0.4226 -0.0000 -0.9063
vt 0.000100 0.057549
vt 0.999900 0.057549
vt 0.000100 0.997195
vt 0.999900 0.997195
s 0
usemtl grass_Mat
f 5/5/2 6/6/2 8/8/2 7/7/2
o Plane.010
v 0.441119 -0.150000 -0.174690
v 0.169227 -0.150000 -0.301476
v 0.441119 0.150000 -0.174690
v 0.169227 0.150000 -0.301476
vn 0.4226 -0.0000 -0.9063
vt 0.000100 0.057549
vt 0.999900 0.057549
vt 0.000100 0.997195
vt 0.999900 0.997195
s 0
usemtl grass_Mat
f 9/9/3 10/10/3 12/12/3 11/11/3
o Plane.009
v 0.241780 -0.150000 -0.102137
v 0.368566 -0.150000 -0.374029
v 0.241780 0.150000 -0.102137
v 0.368565 0.150000 -0.374029
vn 0.9063 -0.0000 0.4226
vt 0.000100 0.057549
vt 0.999900 0.057549
vt 0.000100 0.997195
vt 0.999900 0.997195
s 0
usemtl grass_Mat
f 13/13/4 14/14/4 16/16/4 15/15/4
o Plane.008
v -0.238601 -0.150000 -0.102137
v -0.111816 -0.150000 -0.374029
v -0.238601 0.150000 -0.102137
v -0.111816 0.150000 -0.374029
vn 0.9063 -0.0000 0.4226
vt 0.000100 0.057549
vt 0.999900 0.057549
vt 0.000100 0.997195
vt 0.999900 0.997195
s 0
usemtl grass_Mat
f 17/17/5 18/18/5 20/20/5 19/19/5
o Plane.007
v -0.039262 -0.150000 -0.174690
v -0.311154 -0.150000 -0.301476
v -0.039262 0.150000 -0.174690
v -0.311154 0.150000 -0.301476
vn 0.4226 -0.0000 -0.9063
vt 0.000100 0.057549
vt 0.999900 0.057549
vt 0.000100 0.997195
vt 0.999900 0.997195
s 0
usemtl grass_Mat
f 21/21/6 22/22/6 24/24/6 23/23/6
o Plane.006
v -0.315268 -0.150000 0.053697
v -0.035149 -0.150000 -0.053696
v -0.315268 0.150000 0.053696
v -0.035149 0.150000 -0.053697
vn 0.3580 -0.0000 0.9337
vt 0.000100 0.057549
vt 0.999900 0.057549
vt 0.000100 0.997195
vt 0.999900 0.997195
s 0
usemtl grass_Mat
f 25/25/7 26/26/7 28/28/7 27/27/7
o Plane.005
v 0.072626 -0.150000 -0.218112
v -0.151952 -0.150000 -0.019203
v 0.072626 0.150000 -0.218112
v -0.151952 0.150000 -0.019203
vn -0.6630 -0.0000 -0.7486
vt 0.000100 0.057549
vt 0.999900 0.057549
vt 0.000100 0.997195
vt 0.999900 0.997195
s 0
usemtl grass_Mat
f 29/29/8 30/30/8 32/32/8 31/31/8
o Plane.004
v 0.246437 -0.150000 -0.187952
v -0.049005 -0.150000 -0.240047
v 0.246437 0.150000 -0.187952
v -0.049005 0.150000 -0.240046
vn 0.1736 -0.0000 -0.9848
vt 0.000100 0.057549
vt 0.999900 0.057549
vt 0.000100 0.997195
vt 0.999900 0.997195
s 0
usemtl grass_Mat
f 33/33/9 34/34/9 36/36/9 35/35/9
o Plane.003
v 0.290343 -0.150000 0.122873
v 0.118270 -0.150000 -0.122873
v 0.290343 0.150000 0.122873
v 0.118270 0.150000 -0.122873
vn 0.8192 -0.0000 -0.5736
vt 0.000100 0.057549
vt 0.999900 0.057549
vt 0.000100 0.997195
vt 0.999900 0.997195
s 0
usemtl grass_Mat
f 37/37/10 38/38/10 40/40/10 39/39/10
o Plane.002
v -0.238601 -0.150000 0.135946
v -0.111816 -0.150000 -0.135946
v -0.238601 0.150000 0.135946
v -0.111816 0.150000 -0.135946
vn 0.9063 -0.0000 0.4226
vt 0.000100 0.057549
vt 0.999900 0.057549
vt 0.000100 0.997195
vt 0.999900 0.997195
s 0
usemtl grass_Mat
f 41/41/11 42/42/11 44/44/11 43/43/11
o Plane
v -0.150000 -0.150000 0.000000
v 0.150000 -0.150000 0.000000
v -0.150000 0.150000 -0.000000
v 0.150000 0.150000 -0.000000
vn -0.0000 -0.0000 1.0000
vt 0.000100 0.057549
vt 0.999900 0.057549
vt 0.000100 0.997195
vt 0.999900 0.997195
s 0
usemtl grass_Mat
f 45/45/12 46/46/12 48/48/12 47/47/12
