# Blender v2.78 (sub 0) OBJ File: 'MonolithCrystal.blend'
# www.blender.org
mtllib MonolithCrystal.mtl
o Monolith_Crystal_Plane.001
v 0.052192 0.804094 -0.001348
v -0.022229 -0.530437 -0.000000
v 0.006731 -0.490838 2.653359
v -0.574881 -0.594462 2.733453
v 0.127281 0.755804 2.452103
v -0.567467 -0.831451 2.349401
v 0.136812 -0.970921 1.557892
v 0.226066 -0.340497 2.747763
v 0.302496 0.053201 3.040503
v 0.692168 -0.039693 2.435855
v 0.641794 -0.461334 2.447153
v 0.577360 0.264151 0.005997
v 0.692649 -0.331285 -0.000000
v 0.852605 0.004302 -0.000000
v 0.830388 -0.530846 1.563156
v 0.916975 -0.004600 1.569288
v 0.933612 -0.236692 2.115089
v 0.891582 -0.375473 2.109106
v 0.858024 -0.161474 0.779987
v -0.400976 -0.561532 0.779987
v 0.382575 -0.669439 0.779987
v 0.730560 -0.387792 0.779987
v 0.809246 0.129258 0.772673
v -0.682230 -0.151205 0.779987
v -0.510967 -0.186605 -0.000000
v -0.399313 0.239865 0.000000
v -0.403219 0.203562 2.801021
v -0.483070 -0.221469 2.653359
v -0.920733 -0.316062 2.349401
v -0.620057 0.250049 2.445315
v 0.326014 0.627357 1.740745
v -0.173924 0.813029 1.738543
v 0.152132 0.854989 2.156945
v -0.165295 0.425025 0.721779
v 0.453494 0.489096 0.724020
v 0.096370 0.795994 0.274510
vt 0.7396 0.1843
vt 0.6353 0.0619
vt 0.8645 0.0333
vt 0.2764 0.4901
vt 0.2483 0.3062
vt 0.4662 0.2809
vt 0.3999 0.4736
vt 0.8336 0.6715
vt 0.8243 0.7131
vt 0.8336 0.8282
vt 0.7868 0.8038
vt 0.9580 0.2327
vt 0.5954 0.4011
vt 0.1051 0.1338
vt 0.2118 0.1091
vt 0.1701 0.1913
vt 0.1302 0.1974
vt 1.0000 0.2408
vt 1.0000 0.6120
vt 0.9473 0.6019
vt 0.2345 0.0453
vt 0.3114 0.0576
vt 0.5036 0.4751
vt 0.4791 0.6549
vt 0.5036 0.1056
vt 0.7121 0.6715
vt 0.5134 0.5576
vt 0.7608 0.5946
vt 0.7868 0.6715
vt 0.7387 0.8072
vt 0.5856 0.6797
vt 0.4269 0.0311
vt 0.0103 0.1685
vt 0.1125 0.0000
vt 0.6493 0.8855
vt 0.6992 1.0000
vt 0.5736 0.9415
vt 0.2023 0.5025
vt 0.1100 0.3326
vt 0.3145 0.6690
vt 0.2093 0.6873
vt 0.1933 0.6980
vt 0.1424 0.5190
vt 0.5036 0.4862
vt 0.1193 0.5468
vt 0.7868 0.8687
vt 0.9803 0.0522
vt 0.0489 0.3236
vt 0.5477 0.3956
vt 0.6146 0.1663
vt 0.5038 0.7651
vt 0.5036 0.8305
vt 0.5163 0.9998
vt 0.0000 0.2405
vt 0.1534 0.7250
vt 0.1320 0.6625
vt 0.6572 0.0000
vn -0.7640 0.6397 0.0836
vn 0.5611 -0.8084 -0.1778
vn -0.6797 -0.6939 -0.2377
vn -0.7335 0.6330 -0.2478
vn 0.7854 -0.1237 0.6065
vn -0.8111 -0.5560 -0.1817
vn 0.1864 -0.8739 0.4490
vn -0.1357 -0.9852 -0.1052
vn -0.3981 -0.8961 -0.1963
vn -0.5134 0.7531 0.4114
vn -0.1319 0.6169 0.7759
vn 0.2744 -0.8551 0.4399
vn 0.7501 0.5244 0.4029
vn 0.5263 -0.8315 0.1777
vn 0.6636 -0.3342 0.6693
vn -0.5868 0.3055 0.7499
vn 0.9829 -0.1740 -0.0610
vn 0.8867 -0.4536 -0.0893
vn 0.8614 0.5069 -0.0336
vn -0.5229 0.8033 0.2851
vn 0.9811 0.1620 -0.1055
vn 0.8543 -0.4811 -0.1968
vn -0.1255 -0.9111 -0.3927
vn 0.4016 -0.8877 -0.2252
vn 0.7143 0.6935 -0.0940
vn -0.8498 0.5219 -0.0743
vn -0.8608 0.4839 -0.1579
vn -0.7099 0.1013 0.6970
vn -0.9440 0.2472 -0.2185
vn 0.7237 0.6901 0.0062
vn 0.3282 0.8797 -0.3440
vn -0.0841 0.7906 0.6065
vn 0.1058 0.9644 -0.2425
vn 0.8103 0.5729 0.1229
vn -0.1744 -0.2937 0.9398
vn 0.1017 0.1849 0.9775
vn -0.1780 -0.3237 0.9292
vn -0.3719 -0.5063 0.7780
vn -0.7826 -0.5364 0.3159
vn 0.7416 0.6344 0.2181
vn 0.9177 0.3467 0.1938
vn 0.7781 0.5863 0.2256
vn -0.7727 0.6187 0.1419
vn -0.7392 0.6700 0.0678
usemtl Monolith_Crystal
s off
f 34/1/1 36/2/1 26/3/1
f 22/4/2 15/5/2 7/6/2 21/7/2
f 2/8/3 20/9/3 24/10/3 25/11/3
f 24/12/4 32/13/4 34/1/4
f 10/14/5 11/15/5 18/16/5 17/17/5
f 20/18/6 6/19/6 29/20/6
f 8/21/7 3/22/7 7/6/7 11/15/7
f 20/23/8 2/24/8 21/7/8
f 7/6/9 6/25/9 20/23/9
f 27/26/10 5/27/10 30/28/10
f 5/29/11 27/30/11 9/31/11
f 3/22/12 4/32/12 6/25/12 7/6/12
f 5/33/13 9/34/13 10/14/13
f 15/5/14 18/16/14 11/15/14 7/6/14
f 8/21/15 11/15/15 10/14/15 9/34/15
f 28/35/16 29/36/16 4/37/16
f 15/5/17 19/38/17 16/39/17 17/17/17 18/16/17
f 22/4/18 13/40/18 14/41/18 19/38/18
f 19/38/19 14/41/19 12/42/19 23/43/19
f 32/13/20 30/28/20 5/27/20 33/44/20
f 19/38/21 23/43/21 16/39/21
f 15/5/22 22/4/22 19/38/22
f 20/23/23 21/7/23 7/6/23
f 20/18/6 29/20/6 24/12/6
f 13/40/24 22/4/24 21/7/24 2/24/24
f 35/45/25 23/43/25 12/42/25
f 24/12/26 29/20/26 32/13/26
f 29/20/27 30/28/27 32/13/27
f 29/36/28 28/35/28 27/30/28 30/46/28
f 25/47/29 24/12/29 26/3/29
f 35/45/30 31/48/30 16/39/30 23/43/30
f 31/49/31 32/13/31 33/44/31
f 34/1/32 35/50/32 36/2/32
f 31/49/33 35/50/33 34/1/33 32/13/33
f 5/33/34 10/14/34 31/48/34
f 8/51/35 27/30/35 28/35/35
f 28/35/36 4/37/36 3/52/36
f 3/52/37 8/51/37 28/35/37
f 9/31/38 27/30/38 8/51/38
f 4/37/39 29/36/39 6/53/39
f 16/39/40 31/48/40 10/14/40
f 33/54/41 5/33/41 31/48/41
f 10/14/42 17/17/42 16/39/42
f 12/42/25 1/55/25 36/56/25
f 36/56/25 35/45/25 12/42/25
f 1/57/43 26/3/43 36/2/43
f 24/12/44 34/1/44 26/3/44
