# Blender 3.3.1
# www.blender.org
mtllib Pine.mtl
o Pine
v -0.271034 2.766525 0.271035
v 0.271034 2.766525 0.271035
v -0.001975 3.546239 0.001975
v 0.001975 3.546239 0.001975
v -0.001975 3.546239 -0.001974
v 0.001975 3.546239 -0.001974
v -0.271034 2.766525 -0.271034
v 0.271034 2.766525 -0.271034
v 0.000000 3.546239 -0.002750
v 0.000000 2.766525 -0.377506
v 0.000000 2.766525 0.377507
v 0.000000 3.546239 0.002751
v 0.000000 3.546239 0.000024
v -0.002751 3.546239 0.000024
v -0.377507 2.766525 0.000854
v 0.000000 2.766525 0.000854
v 0.377507 2.766525 0.000854
v 0.002751 3.546239 0.000024
v -0.605984 0.818934 0.605984
v 0.605984 0.818934 0.605984
v -0.004415 2.562234 0.004416
v 0.004416 2.562234 0.004416
v -0.004415 2.562234 -0.004415
v 0.004416 2.562234 -0.004415
v -0.605984 0.818935 -0.605984
v 0.605984 0.818935 -0.605984
v 0.000000 2.562234 -0.006150
v 0.000000 0.818935 -0.844037
v 0.000000 0.818934 0.844037
v 0.000000 2.562234 0.006150
v 0.000000 2.562234 0.000053
v -0.006150 2.562234 0.000053
v -0.844037 0.818935 0.001908
v 0.000000 0.818935 0.001908
v 0.844037 0.818935 0.001908
v 0.006150 2.562234 0.000053
v -0.531744 1.449077 0.531744
v 0.531744 1.449077 0.531744
v -0.003874 2.978803 0.003875
v 0.003875 2.978803 0.003875
v -0.003874 2.978803 -0.003874
v 0.003875 2.978803 -0.003874
v -0.531744 1.449078 -0.531744
v 0.531744 1.449078 -0.531744
v 0.000000 2.978802 -0.005396
v 0.000000 1.449078 -0.740632
v 0.000000 1.449077 0.740633
v 0.000000 2.978802 0.005397
v 0.000000 2.978802 0.000047
v -0.005396 2.978802 0.000047
v -0.740633 1.449078 0.001675
v 0.000000 1.449078 0.001675
v 0.740633 1.449078 0.001675
v 0.005397 2.978802 0.000047
v -0.396236 2.189168 0.396236
v 0.396236 2.189168 0.396236
v -0.002887 3.329063 0.002888
v 0.002887 3.329063 0.002888
v -0.002887 3.329063 -0.002887
v 0.002887 3.329063 -0.002887
v -0.396236 2.189168 -0.396236
v 0.396236 2.189168 -0.396236
v 0.000000 3.329063 -0.004021
v 0.000000 2.189168 -0.551892
v 0.000000 2.189168 0.551893
v 0.000000 3.329063 0.004022
v 0.000000 3.329063 0.000035
v -0.004021 3.329063 0.000035
v -0.551892 2.189168 0.001248
v 0.000000 2.189168 0.001248
v 0.551892 2.189168 0.001248
v 0.004021 3.329063 0.000035
v 0.103179 -0.001533 -0.033525
v 0.087770 -0.001533 -0.063768
v 0.063768 -0.001533 -0.087770
v 0.033525 -0.001533 -0.103179
v 0.000000 -0.001533 -0.108489
v -0.033525 -0.001533 -0.103179
v -0.063768 -0.001533 -0.087770
v -0.087770 -0.001533 -0.063768
v -0.103179 -0.001533 -0.033525
v -0.108489 -0.001533 -0.000000
v -0.103179 -0.001533 0.033525
v -0.087770 -0.001533 0.063768
v -0.063768 -0.001533 0.087770
v -0.033525 -0.001533 0.103179
v 0.000000 -0.001533 0.108489
v 0.033525 -0.001533 0.103179
v 0.063768 -0.001533 0.087770
v 0.087770 -0.001533 0.063768
v 0.103179 -0.001533 0.033525
v 0.108489 -0.001533 -0.000000
v 0.103179 0.943409 -0.033525
v 0.087770 0.943409 -0.063768
v 0.063768 0.943409 -0.087770
v 0.033525 0.943409 -0.103179
v 0.000000 0.943409 -0.108489
v -0.033525 0.943409 -0.103179
v -0.063768 0.943409 -0.087770
v -0.087770 0.943409 -0.063768
v -0.103179 0.943409 -0.033525
v -0.108489 0.943409 0.000000
v -0.103179 0.943409 0.033525
v -0.087770 0.943409 0.063769
v -0.063768 0.943409 0.087770
v -0.033525 0.943409 0.103180
v 0.000000 0.943409 0.108489
v 0.033525 0.943409 0.103180
v 0.063768 0.943409 0.087770
v 0.087770 0.943409 0.063769
v 0.103179 0.943409 0.033525
v 0.108489 0.943409 0.000000
v 0.000000 -0.001533 -0.000000
v 0.000000 0.943409 0.000000
v -0.103179 0.056120 -0.033525
v -0.087770 0.056120 -0.063768
v -0.063768 0.056120 -0.087770
v -0.033525 0.056120 -0.103179
v 0.000000 0.056120 -0.108489
v 0.033525 0.056120 -0.103179
v 0.063768 0.056120 -0.087770
v 0.087770 0.056120 -0.063768
v 0.103179 0.056120 -0.033525
v 0.108489 0.056120 0.000000
v 0.103179 0.056120 0.033525
v 0.087770 0.056120 0.063768
v 0.063768 0.056120 0.087770
v 0.033525 0.056120 0.103179
v 0.000000 0.056120 0.108489
v -0.033525 0.056120 0.103179
v -0.063768 0.056120 0.087770
v -0.087770 0.056120 0.063768
v -0.103179 0.056120 0.033525
v -0.108489 0.056120 0.000000
v 0.264837 -0.001533 -0.086051
v 0.225284 -0.001533 -0.163678
v 0.225284 0.056120 -0.163678
v 0.264837 0.056120 -0.086051
v 0.163678 -0.001533 -0.225284
v 0.163678 0.056120 -0.225284
v 0.086051 -0.001533 -0.264837
v 0.086051 0.056120 -0.264837
v 0.000000 -0.001533 -0.278466
v 0.000000 0.056120 -0.278466
v -0.086051 -0.001533 -0.264837
v -0.086051 0.056120 -0.264837
v -0.163678 -0.001533 -0.225284
v -0.163678 0.056120 -0.225284
v -0.225284 -0.001533 -0.163678
v -0.225284 0.056120 -0.163678
v -0.264837 -0.001533 -0.086051
v -0.264837 0.056120 -0.086051
v -0.278466 -0.001533 -0.000000
v -0.278466 0.056120 0.000000
v -0.264837 -0.001533 0.086051
v -0.264837 0.056120 0.086051
v -0.225284 -0.001533 0.163678
v -0.225284 0.056120 0.163678
v -0.163678 -0.001533 0.225284
v -0.163678 0.056120 0.225284
v -0.086051 -0.001533 0.264837
v -0.086051 0.056120 0.264837
v 0.000000 -0.001533 0.278466
v 0.000000 0.056120 0.278466
v 0.086051 -0.001533 0.264837
v 0.086051 0.056120 0.264837
v 0.163678 -0.001533 0.225284
v 0.163678 0.056120 0.225284
v 0.225284 -0.001533 0.163678
v 0.225284 0.056120 0.163678
v 0.264837 -0.001533 0.086051
v 0.264837 0.056120 0.086051
v 0.278466 -0.001533 -0.000000
v 0.278466 0.056120 0.000000
vn -0.3338 0.4084 0.8496
vn -0.0000 0.4332 0.9013
vn -0.0000 1.0000 -0.0002
vn -0.3338 0.4084 -0.8496
vn -0.0000 0.4332 -0.9013
vn -0.0000 -1.0000 -0.0000
vn 0.8492 0.4085 0.3347
vn 0.9013 0.4332 0.0001
vn 0.9013 0.4332 0.0002
vn -0.9013 0.4332 0.0001
vn -0.8492 0.4085 0.3347
vn -0.9013 0.4332 0.0002
vn 0.3338 0.4084 -0.8496
vn 0.3338 0.4084 0.8496
vn -0.0000 1.0000 -0.0000
vn -0.0000 1.0000 -0.0001
vn -0.8500 0.4082 -0.3329
vn 0.8500 0.4082 -0.3329
vn 0.0001 1.0000 -0.0001
vn -0.0001 1.0000 -0.0001
vn 0.0001 1.0000 0.0001
vn -0.0001 1.0000 -0.0000
vn 0.0001 1.0000 -0.0000
vn -0.0000 1.0000 0.0001
vn 0.9511 -0.0000 -0.3090
vn 0.8090 -0.0000 -0.5878
vn 0.8090 0.0001 -0.5878
vn 0.5878 -0.0000 -0.8090
vn 0.3090 -0.0000 -0.9511
vn -0.0000 -0.0000 -1.0000
vn -0.3090 -0.0000 -0.9511
vn -0.5878 -0.0000 -0.8090
vn -0.8090 -0.0000 -0.5878
vn -0.8090 0.0001 -0.5878
vn -0.9511 -0.0000 -0.3090
vn -1.0000 -0.0000 -0.0000
vn -1.0000 0.0001 -0.0000
vn -0.9511 -0.0000 0.3090
vn -0.8090 -0.0000 0.5878
vn -0.5878 -0.0000 0.8090
vn -0.3090 -0.0000 0.9511
vn -0.0000 -0.0000 1.0000
vn 0.3090 -0.0000 0.9511
vn 0.5878 -0.0000 0.8090
vn 0.8090 -0.0000 0.5878
vn 0.9511 -0.0000 0.3090
vn 1.0000 -0.0000 -0.0000
vn -0.5878 0.0001 -0.8090
vn 0.5878 -0.0001 -0.8090
vn 1.0000 0.0001 -0.0000
vn 0.9511 -0.0001 -0.3090
vn 0.9511 0.0001 0.3090
vn 0.5878 0.0001 0.8090
vn -0.5878 -0.0001 0.8090
vn -1.0000 -0.0001 -0.0000
vt 1.000000 0.425510
vt 0.563513 0.956191
vt 0.897709 0.125704
vt 0.244736 0.461684
vt 0.598317 0.867595
vt 0.913308 0.401735
vt 1.000000 0.276196
vt 0.249825 0.340989
vt 0.983783 0.000000
vt 0.220291 0.340342
vt 0.999368 0.276022
vt 0.250078 0.340343
vt 0.951167 0.787848
vt 0.250470 0.341243
vt 0.984415 0.000174
vt 0.951726 0.788141
vt 0.250724 0.340597
vt 0.838856 0.890787
vt 0.984415 0.149488
vt 0.474917 0.921387
vt 0.509721 0.832792
vt 0.915570 0.931049
vt 0.951385 0.787991
vt 0.250724 0.340970
vt 0.868851 0.910482
vt 0.474917 0.870253
vt 0.598317 0.918729
vt 0.949773 0.416050
vt 0.999634 0.276127
vt 0.249825 0.340616
vt 0.250270 0.340792
vt 0.250094 0.341241
vt 0.984045 0.000103
vt 0.934053 0.139986
vt 0.512518 0.956246
vt 0.536757 0.894546
vt 0.193827 0.465366
vt 0.560994 0.832846
vt 0.951993 0.940069
vt 0.219923 0.340342
vt 0.951993 0.788206
vt 0.250447 0.340342
vt 0.166892 0.674570
vt 0.451038 0.275899
vt 0.474917 0.557074
vt 0.366776 0.899689
vt 0.528853 0.077815
vt 0.000000 0.621413
vt 0.193827 0.340729
vt 0.244736 0.341789
vt 0.667362 0.276022
vt 0.312122 0.574667
vt 0.192415 0.340342
vt 0.245303 0.340345
vt 0.251107 0.000000
vt 0.246179 0.342356
vt 0.668775 0.276409
vt 0.252357 0.000656
vt 0.246746 0.340912
vt 0.000000 0.230154
vt 0.668775 0.610251
vt 0.252954 0.198084
vt 0.330769 0.000000
vt 0.171520 0.320173
vt 0.251596 0.000320
vt 0.246746 0.341745
vt 0.067063 0.274190
vt 0.252954 0.083758
vt 0.528853 0.192142
vt 0.081529 0.653419
vt 0.193009 0.340574
vt 0.244736 0.340956
vt 0.245732 0.341347
vt 0.245338 0.342352
vt 0.667948 0.276253
vt 0.556175 0.589005
vt 0.337023 0.276022
vt 0.391215 0.138072
vt 0.252954 0.899689
vt 0.445407 0.000123
vt 0.252954 0.340342
vt 0.311299 0.574667
vt 0.252954 0.000803
vt 0.246127 0.340342
vt 0.838856 0.862585
vt 0.702670 0.242098
vt 0.668775 0.522642
vt 0.466655 0.859871
vt 0.770951 0.068282
vt 0.668775 0.815941
vt 0.838856 0.569643
vt 0.248013 0.340345
vt 0.837643 0.276022
vt 0.418696 0.574669
vt 0.837616 0.569304
vt 0.248510 0.341611
vt 0.473297 0.276022
vt 0.246746 0.340842
vt 0.838883 0.276361
vt 0.474394 0.276598
vt 0.247244 0.342109
vt 0.252953 0.477980
vt 0.838883 0.569305
vt 0.528853 0.173817
vt 0.597135 0.000000
vt 0.403460 0.556971
vt 0.473726 0.276304
vt 0.246746 0.341573
vt 0.311801 0.516621
vt 0.528853 0.073497
vt 0.770951 0.168602
vt 0.740315 0.844025
vt 0.838138 0.569508
vt 0.248510 0.340880
vt 0.247636 0.341224
vt 0.247289 0.340342
vt 0.838157 0.276224
vt 0.740078 0.550661
vt 0.602623 0.242206
vt 0.650176 0.121157
vt 0.366776 0.859871
vt 0.697729 0.000107
vt 0.474917 0.574669
vt 0.417974 0.574669
vt 0.474917 0.276726
vt 0.247982 0.342106
vt 0.965594 0.787846
vt 0.129522 0.854974
vt 0.770951 0.183771
vt 0.913308 0.488544
vt 0.180403 0.725452
vt 0.838856 0.753088
vt 0.965594 0.569557
vt 0.249454 0.340344
vt 0.896786 0.000000
vt 0.877571 0.276022
vt 0.964670 0.569304
vt 0.249825 0.341288
vt 0.637033 0.610250
vt 0.248510 0.340715
vt 0.897709 0.000254
vt 0.637850 0.610680
vt 0.248881 0.341659
vt 0.474917 0.760742
vt 0.897709 0.218544
vt 0.000000 0.804093
vt 0.050881 0.674571
vt 0.587069 0.819603
vt 0.637353 0.610460
vt 0.248510 0.341260
vt 0.518768 0.789536
vt 0.000000 0.729338
vt 0.180403 0.800207
vt 0.892165 0.774015
vt 0.965059 0.569456
vt 0.249825 0.340743
vt 0.249173 0.340999
vt 0.248915 0.340342
vt 0.897169 0.000151
vt 0.824084 0.204651
vt 0.054971 0.855054
vt 0.090405 0.764852
vt 0.838882 0.488544
vt 0.125840 0.674651
vt 0.619810 0.832790
vt 0.877033 0.276022
vt 0.638240 0.610775
vt 0.249431 0.341656
vt 0.061767 0.889879
vt 0.056945 0.886376
vt 0.051277 0.884534
vt 0.045316 0.884534
vt 0.039648 0.886376
vt 0.034826 0.889879
vt 0.031322 0.894701
vt 0.029480 0.900370
vt 0.029480 0.906330
vt 0.031322 0.911999
vt 0.034826 0.916821
vt 0.039648 0.920324
vt 0.045316 0.922166
vt 0.051277 0.922166
vt 0.056945 0.920324
vt 0.061767 0.916821
vt 0.065271 0.911999
vt 0.067112 0.906330
vt 0.067112 0.900370
vt 0.065271 0.894701
vt 0.190570 0.710361
vt 0.220750 0.485712
vt 0.220750 0.485882
vt 0.185748 0.706858
vt 0.216062 0.486340
vt 0.182245 0.702036
vt 0.210466 0.486689
vt 0.180403 0.696367
vt 0.204510 0.486727
vt 0.180403 0.690407
vt 0.198777 0.486450
vt 0.182245 0.684738
vt 0.220750 0.794141
vt 0.193827 0.485884
vt 0.185748 0.679916
vt 0.225082 0.793281
vt 0.190570 0.676413
vt 0.230468 0.792744
vt 0.196239 0.674571
vt 0.236379 0.792584
vt 0.202199 0.674571
vt 0.242237 0.792814
vt 0.207868 0.676413
vt 0.640316 0.764135
vt 0.247469 0.793414
vt 0.212690 0.679916
vt 0.644651 0.763275
vt 0.216193 0.684738
vt 0.650038 0.762739
vt 0.218035 0.690407
vt 0.655949 0.762579
vt 0.218035 0.696367
vt 0.661807 0.762811
vt 0.216193 0.702036
vt 0.247673 0.485712
vt 0.667037 0.763411
vt 0.212690 0.706858
vt 0.242984 0.486339
vt 0.207868 0.710361
vt 0.237387 0.486689
vt 0.202199 0.712203
vt 0.231431 0.486726
vt 0.196239 0.712203
vt 0.225698 0.486448
vt 0.048296 0.903350
vt 0.199219 0.693387
vt 0.236379 0.640253
vt 0.126073 0.900370
vt 0.230468 0.640414
vt 0.126073 0.906330
vt 0.225082 0.640950
vt 0.127915 0.911999
vt 0.220750 0.641810
vt 0.193827 0.639412
vt 0.131418 0.916821
vt 0.198777 0.639978
vt 0.136240 0.920324
vt 0.204510 0.640255
vt 0.141909 0.922166
vt 0.210466 0.640217
vt 0.147869 0.922166
vt 0.216062 0.639868
vt 0.153538 0.920324
vt 0.220750 0.639240
vt 0.220750 0.639409
vt 0.158360 0.916821
vt 0.225698 0.639975
vt 0.161863 0.911999
vt 0.231431 0.640253
vt 0.163705 0.906330
vt 0.237387 0.640215
vt 0.163705 0.900370
vt 0.242984 0.639866
vt 0.161863 0.894701
vt 0.247673 0.639239
vt 0.667037 0.611084
vt 0.158360 0.889879
vt 0.661807 0.610483
vt 0.153538 0.886376
vt 0.655949 0.610251
vt 0.147869 0.884534
vt 0.650038 0.610412
vt 0.141909 0.884534
vt 0.644651 0.610948
vt 0.136240 0.886376
vt 0.640316 0.611807
vt 0.247469 0.641084
vt 0.131418 0.889879
vt 0.242237 0.640484
vt 0.127915 0.894701
vt 0.642656 0.833241
vt 0.208343 0.712203
vt 0.082873 0.868774
vt 0.641123 0.821199
vt 0.070496 0.859781
vt 0.651098 0.821263
vt 0.167089 0.946919
vt 0.652632 0.833305
vt 0.218319 0.712266
vt 0.179466 0.937927
vt 0.640316 0.806831
vt 0.055946 0.855054
vt 0.650292 0.806894
vt 0.152539 0.951647
vt 0.640316 0.791542
vt 0.040647 0.855054
vt 0.650292 0.791606
vt 0.137240 0.951647
vt 0.641123 0.776830
vt 0.026097 0.859781
vt 0.651098 0.776894
vt 0.122690 0.946919
vt 0.642656 0.764135
vt 0.196108 0.780809
vt 0.013720 0.868774
vt 0.652632 0.764199
vt 0.206003 0.781078
vt 0.110313 0.937927
vt 0.194204 0.769633
vt 0.004728 0.881151
vt 0.204099 0.769902
vt 0.101320 0.925550
vt 0.193203 0.755778
vt 0.000000 0.895701
vt 0.203098 0.756047
vt 0.096593 0.911000
vt 0.193203 0.740600
vt 0.000000 0.911000
vt 0.203098 0.740869
vt 0.096593 0.895701
vt 0.194204 0.725585
vt 0.004728 0.925550
vt 0.204099 0.725854
vt 0.101320 0.881151
vt 0.196108 0.712203
vt 0.183309 0.780813
vt 0.013720 0.937927
vt 0.206003 0.712472
vt 0.193203 0.781082
vt 0.110313 0.868774
vt 0.181404 0.769632
vt 0.026097 0.946919
vt 0.191298 0.769900
vt 0.122690 0.859781
vt 0.180403 0.755773
vt 0.040647 0.951647
vt 0.190297 0.756042
vt 0.137240 0.855054
vt 0.180403 0.740595
vt 0.055946 0.951647
vt 0.190297 0.740863
vt 0.152539 0.855054
vt 0.181404 0.725581
vt 0.070496 0.946919
vt 0.191298 0.725849
vt 0.167089 0.859781
vt 0.183309 0.712203
vt 0.208343 0.781310
vt 0.082873 0.937927
vt 0.193203 0.712471
vt 0.218319 0.781373
vt 0.179466 0.868774
vt 0.206809 0.769264
vt 0.091865 0.925550
vt 0.216785 0.769327
vt 0.188458 0.881151
vt 0.206003 0.754893
vt 0.096593 0.911000
vt 0.215978 0.754956
vt 0.193186 0.895701
vt 0.206003 0.739605
vt 0.096593 0.895701
vt 0.215978 0.739668
vt 0.193186 0.911000
vt 0.206809 0.724895
vt 0.091865 0.881151
vt 0.216785 0.724958
vt 0.188458 0.925550
s 0
usemtl マテリアル
f 1/1/1 11/28/2 12/29/2 3/7/1
f 3/8/3 12/30/3 13/31/3 14/32/3
f 5/13/4 9/23/5 10/25/5 7/18/4
f 15/35/6 16/36/6 11/27/6 1/2/6
f 2/4/7 17/37/8 18/40/9 4/10/7
f 15/34/10 1/3/11 3/9/11 14/33/12
f 9/23/5 6/16/13 8/22/13 10/25/5
f 11/27/6 16/36/6 17/38/6 2/5/6
f 12/29/2 11/28/2 2/6/14 4/11/14
f 18/42/15 13/31/15 12/30/15 4/12/15
f 14/32/16 13/31/16 9/24/16 5/14/16
f 7/19/17 15/34/10 14/33/12 5/15/17
f 7/20/6 10/26/6 16/36/6 15/35/6
f 17/38/6 16/36/6 10/26/6 8/21/6
f 18/41/9 17/39/8 8/22/18 6/16/18
f 9/24/16 13/31/16 18/42/16 6/17/16
f 19/43/1 29/70/2 30/71/2 21/49/1
f 21/50/15 30/72/15 31/73/15 32/74/15
f 23/55/4 27/65/5 28/67/5 25/60/4
f 33/77/6 34/78/6 29/69/6 19/44/6
f 20/46/7 35/79/8 36/82/9 22/52/7
f 33/76/10 19/45/11 21/51/11 32/75/12
f 27/65/5 24/58/13 26/64/13 28/67/5
f 29/69/6 34/78/6 35/80/6 20/47/6
f 30/71/2 29/70/2 20/48/14 22/53/14
f 36/84/15 31/73/15 30/72/15 22/54/15
f 32/74/15 31/73/15 27/66/15 23/56/15
f 25/61/17 33/76/10 32/75/12 23/57/17
f 25/62/6 28/68/6 34/78/6 33/77/6
f 35/80/6 34/78/6 28/68/6 26/63/6
f 36/83/9 35/81/8 26/64/18 24/58/18
f 27/66/15 31/73/15 36/84/15 24/59/15
f 37/85/1 47/112/2 48/113/2 39/91/1
f 39/92/19 48/114/19 49/115/19 50/116/19
f 41/97/4 45/107/5 46/109/5 43/102/4
f 51/119/6 52/120/6 47/111/6 37/86/6
f 38/88/7 53/121/8 54/124/9 40/94/7
f 51/118/10 37/87/11 39/93/11 50/117/12
f 45/107/5 42/100/13 44/106/13 46/109/5
f 47/111/6 52/120/6 53/122/6 38/89/6
f 48/113/2 47/112/2 38/90/14 40/95/14
f 54/126/20 49/115/20 48/114/20 40/96/20
f 50/116/21 49/115/21 45/108/21 41/98/21
f 43/103/17 51/118/10 50/117/12 41/99/17
f 43/104/6 46/110/6 52/120/6 51/119/6
f 53/122/6 52/120/6 46/110/6 44/105/6
f 54/125/9 53/123/8 44/106/18 42/100/18
f 45/108/22 49/115/22 54/126/22 42/101/22
f 55/127/1 65/154/2 66/155/2 57/133/1
f 57/134/23 66/156/23 67/157/23 68/158/23
f 59/139/4 63/149/5 64/151/5 61/144/4
f 69/161/6 70/162/6 65/153/6 55/128/6
f 56/130/7 71/163/8 72/166/9 58/136/7
f 69/160/10 55/129/11 57/135/11 68/159/12
f 63/149/5 60/142/13 62/148/13 64/151/5
f 65/153/6 70/162/6 71/164/6 56/131/6
f 66/155/2 65/154/2 56/132/14 58/137/14
f 72/168/20 67/157/20 66/156/20 58/138/20
f 68/158/15 67/157/15 63/150/15 59/140/15
f 61/145/17 69/160/10 68/159/12 59/141/17
f 61/146/6 64/152/6 70/162/6 69/161/6
f 71/164/6 70/162/6 64/152/6 62/147/6
f 72/167/9 71/165/8 62/148/18 60/142/18
f 63/150/24 67/157/24 72/168/24 60/143/24
f 135/279/25 136/282/26 137/284/26 138/286/25
f 136/282/27 139/289/28 140/291/28 137/284/26
f 139/289/28 141/293/29 142/295/29 140/291/28
f 141/293/29 143/297/30 144/299/30 142/295/29
f 143/297/30 145/301/31 146/304/31 144/299/30
f 145/302/31 147/307/32 148/309/32 146/305/31
f 147/307/32 149/311/33 150/313/33 148/309/32
f 149/311/34 151/315/35 152/317/35 150/313/33
f 151/315/35 153/319/36 154/321/36 152/317/35
f 153/319/37 155/323/38 156/326/38 154/321/36
f 155/324/38 157/329/39 158/331/39 156/327/38
f 157/329/39 159/333/40 160/335/40 158/331/39
f 159/333/40 161/337/41 162/339/41 160/335/40
f 161/337/41 163/341/42 164/343/42 162/339/41
f 163/341/42 165/345/43 166/348/43 164/343/42
f 165/346/43 167/351/44 168/353/44 166/349/43
f 167/351/44 169/355/45 170/357/45 168/353/44
f 169/355/45 171/359/46 172/361/46 170/357/45
f 171/359/46 173/363/47 174/365/47 172/361/46
f 173/363/47 135/280/25 138/287/25 174/365/47
f 74/170/6 73/169/6 113/233/6
f 75/171/6 74/170/6 113/233/6
f 76/172/6 75/171/6 113/233/6
f 77/173/6 76/172/6 113/233/6
f 78/174/6 77/173/6 113/233/6
f 79/175/6 78/174/6 113/233/6
f 80/176/6 79/175/6 113/233/6
f 81/177/6 80/176/6 113/233/6
f 82/178/6 81/177/6 113/233/6
f 83/179/6 82/178/6 113/233/6
f 84/180/6 83/179/6 113/233/6
f 85/181/6 84/180/6 113/233/6
f 86/182/6 85/181/6 113/233/6
f 87/183/6 86/182/6 113/233/6
f 88/184/6 87/183/6 113/233/6
f 89/185/6 88/184/6 113/233/6
f 90/186/6 89/185/6 113/233/6
f 91/187/6 90/186/6 113/233/6
f 92/188/6 91/187/6 113/233/6
f 73/169/6 92/188/6 113/233/6
f 93/189/15 94/192/15 114/234/15
f 94/192/15 95/194/15 114/234/15
f 95/194/15 96/196/15 114/234/15
f 96/196/15 97/198/15 114/234/15
f 97/198/15 98/200/15 114/234/15
f 98/200/15 99/203/15 114/234/15
f 99/203/15 100/205/15 114/234/15
f 100/205/15 101/207/15 114/234/15
f 101/207/15 102/209/15 114/234/15
f 102/209/15 103/211/15 114/234/15
f 103/211/15 104/214/15 114/234/15
f 104/214/15 105/216/15 114/234/15
f 105/216/15 106/218/15 114/234/15
f 106/218/15 107/220/15 114/234/15
f 107/220/15 108/222/15 114/234/15
f 108/222/15 109/225/15 114/234/15
f 109/225/15 110/227/15 114/234/15
f 110/227/15 111/229/15 114/234/15
f 111/229/15 112/231/15 114/234/15
f 112/231/15 93/189/15 114/234/15
f 116/237/33 115/235/35 101/208/35 100/206/33
f 117/239/48 116/237/33 100/206/33 99/204/32
f 118/241/31 117/239/32 99/204/32 98/201/31
f 119/244/30 118/242/31 98/202/31 97/199/30
f 120/246/29 119/244/30 97/199/30 96/197/29
f 121/248/28 120/246/29 96/197/29 95/195/28
f 122/250/26 121/248/28 95/195/49 94/193/26
f 123/252/25 122/250/26 94/193/26 93/190/25
f 124/255/50 123/253/25 93/191/51 112/232/47
f 125/257/52 124/255/47 112/232/47 111/230/46
f 126/259/45 125/257/46 111/230/46 110/228/45
f 127/261/53 126/259/45 110/228/45 109/226/44
f 128/263/43 127/261/44 109/226/44 108/223/43
f 129/266/42 128/264/43 108/224/43 107/221/42
f 130/268/41 129/266/42 107/221/42 106/219/41
f 131/270/40 130/268/41 106/219/41 105/217/40
f 132/272/39 131/270/40 105/217/54 104/215/39
f 133/274/38 132/272/39 104/215/39 103/212/38
f 134/277/37 133/275/38 103/213/38 102/210/36
f 115/235/35 134/277/36 102/210/55 101/208/35
f 73/169/6 74/170/6 136/283/6 135/281/6
f 122/251/15 123/254/15 138/288/15 137/285/15
f 74/170/6 75/171/6 139/290/6 136/283/6
f 121/249/15 122/251/15 137/285/15 140/292/15
f 75/171/6 76/172/6 141/294/6 139/290/6
f 120/247/15 121/249/15 140/292/15 142/296/15
f 76/172/6 77/173/6 143/298/6 141/294/6
f 119/245/15 120/247/15 142/296/15 144/300/15
f 77/173/6 78/174/6 145/303/6 143/298/6
f 118/243/15 119/245/15 144/300/15 146/306/15
f 78/174/6 79/175/6 147/308/6 145/303/6
f 117/240/15 118/243/15 146/306/15 148/310/15
f 79/175/6 80/176/6 149/312/6 147/308/6
f 116/238/15 117/240/15 148/310/15 150/314/15
f 80/176/6 81/177/6 151/316/6 149/312/6
f 115/236/15 116/238/15 150/314/15 152/318/15
f 81/177/6 82/178/6 153/320/6 151/316/6
f 134/278/15 115/236/15 152/318/15 154/322/15
f 82/178/6 83/179/6 155/325/6 153/320/6
f 133/276/15 134/278/15 154/322/15 156/328/15
f 83/179/6 84/180/6 157/330/6 155/325/6
f 132/273/15 133/276/15 156/328/15 158/332/15
f 84/180/6 85/181/6 159/334/6 157/330/6
f 131/271/15 132/273/15 158/332/15 160/336/15
f 85/181/6 86/182/6 161/338/6 159/334/6
f 130/269/15 131/271/15 160/336/15 162/340/15
f 86/182/6 87/183/6 163/342/6 161/338/6
f 129/267/15 130/269/15 162/340/15 164/344/15
f 87/183/6 88/184/6 165/347/6 163/342/6
f 128/265/15 129/267/15 164/344/15 166/350/15
f 88/184/6 89/185/6 167/352/6 165/347/6
f 127/262/15 128/265/15 166/350/15 168/354/15
f 89/185/6 90/186/6 169/356/6 167/352/6
f 126/260/15 127/262/15 168/354/15 170/358/15
f 90/186/6 91/187/6 171/360/6 169/356/6
f 125/258/15 126/260/15 170/358/15 172/362/15
f 91/187/6 92/188/6 173/364/6 171/360/6
f 124/256/15 125/258/15 172/362/15 174/366/15
f 92/188/6 73/169/6 135/281/6 173/364/6
f 123/254/15 124/256/15 174/366/15 138/288/15
