# Blender v2.92.0 OBJ File: ''
# www.blender.org
mtllib Crystal.mtl
o Cube
v 0.500000 1.917307 -0.500000
v 0.500000 -1.917307 -0.500000
v 0.500000 1.917307 0.500000
v 0.500000 -1.917306 0.500000
v -0.500000 1.917307 -0.500000
v -0.500000 -1.917307 -0.500000
v -0.500000 1.917306 0.500000
v -0.500000 -1.917307 0.500000
v -0.609568 -2.337457 -0.000000
v 0.000000 -2.337457 -0.609568
v 0.609568 0.000000 -0.609568
v -0.609568 -0.000000 0.609568
v 0.609568 0.000000 0.609568
v -0.609568 -0.000000 -0.609568
v -0.000000 2.337457 0.609568
v 0.609568 2.337457 0.000000
v -0.000000 -2.337457 0.609568
v -0.609568 2.337457 -0.000000
v 0.000000 2.337457 -0.609568
v 0.609568 -2.337457 0.000000
v -0.000000 3.219181 -0.000000
v 0.000000 0.000000 0.839506
v -0.839506 0.000000 -0.000000
v 0.000000 -3.219181 0.000000
v 0.839506 0.000000 -0.000000
v 0.000000 0.000000 -0.839506
vt 0.666667 0.458333
vt 0.755208 0.494792
vt 0.751736 0.625000
vt 0.631945 0.625000
vt 0.875000 0.500000
vt 0.875000 0.625000
vt 0.875000 0.750000
vt 0.755208 0.755208
vt 0.666667 0.791667
vt 0.333333 0.791667
vt 0.500000 0.756944
vt 0.500000 0.876736
vt 0.369792 0.880208
vt 0.630208 0.880208
vt 0.625000 1.000000
vt 0.500000 1.000000
vt 0.375000 1.000000
vt 0.375000 0.000000
vt 0.500000 0.000000
vt 0.500000 0.125000
vt 0.375000 0.125000
vt 0.625000 0.000000
vt 0.625000 0.125000
vt 0.625000 0.250000
vt 0.500000 0.250000
vt 0.375000 0.250000
vt 0.125000 0.500000
vt 0.244792 0.494792
vt 0.248264 0.625000
vt 0.125000 0.625000
vt 0.333333 0.458333
vt 0.368056 0.625000
vt 0.244792 0.755208
vt 0.125000 0.750000
vt 0.500000 0.493056
vt 0.500000 0.625000
vt 0.500000 0.373264
vt 0.369792 0.369792
vt 0.630208 0.369792
vn 0.6214 0.4773 -0.6214
vn -0.6214 0.4773 -0.6214
vn -0.6214 0.4773 0.6214
vn 0.6214 0.4773 0.6214
vn 0.3204 -0.0835 0.9436
vn 0.3204 0.0835 0.9436
vn -0.3204 0.0835 0.9436
vn -0.3204 -0.0835 0.9436
vn -0.9436 -0.0835 0.3204
vn -0.9436 0.0835 0.3204
vn -0.9436 0.0835 -0.3204
vn -0.9436 -0.0835 -0.3204
vn -0.6214 -0.4773 -0.6214
vn 0.6214 -0.4773 -0.6214
vn 0.6214 -0.4773 0.6214
vn -0.6214 -0.4773 0.6214
vn 0.9436 -0.0835 -0.3204
vn 0.9436 0.0835 -0.3204
vn 0.9436 0.0835 0.3204
vn 0.9436 -0.0835 0.3204
vn -0.3204 -0.0835 -0.9436
vn -0.3204 0.0835 -0.9436
vn 0.3204 0.0835 -0.9436
vn 0.3204 -0.0835 -0.9436
usemtl Material
s off
f 1/1/1 19/2/1 21/3/1 16/4/1
f 19/2/2 5/5/2 18/6/2 21/3/2
f 21/3/3 18/6/3 7/7/3 15/8/3
f 16/4/4 21/3/4 15/8/4 3/9/4
f 4/10/5 13/11/5 22/12/5 17/13/5
f 13/11/6 3/9/6 15/14/6 22/12/6
f 22/12/7 15/14/7 7/15/7 12/16/7
f 17/13/8 22/12/8 12/16/8 8/17/8
f 8/18/9 12/19/9 23/20/9 9/21/9
f 12/19/10 7/22/10 18/23/10 23/20/10
f 23/20/11 18/23/11 5/24/11 14/25/11
f 9/21/12 23/20/12 14/25/12 6/26/12
f 6/27/13 10/28/13 24/29/13 9/30/13
f 10/28/14 2/31/14 20/32/14 24/29/14
f 24/29/15 20/32/15 4/10/15 17/33/15
f 9/30/16 24/29/16 17/33/16 8/34/16
f 2/31/17 11/35/17 25/36/17 20/32/17
f 11/35/18 1/1/18 16/4/18 25/36/18
f 25/36/19 16/4/19 3/9/19 13/11/19
f 20/32/20 25/36/20 13/11/20 4/10/20
f 6/26/21 14/25/21 26/37/21 10/38/21
f 14/25/22 5/24/22 19/39/22 26/37/22
f 26/37/23 19/39/23 1/1/23 11/35/23
f 10/38/24 26/37/24 11/35/24 2/31/24
