# This file uses centimeters as units for non-parametric coordinates.

mtllib Pine2.mtl
g default
v 5.277853 11.509613 -0.746607
v -5.388831 11.509613 -0.746607
v 0.355774 16.369987 -0.746607
v -0.428382 16.369987 -0.746607
v 0.355774 16.369987 0.152335
v -0.428382 16.369987 0.152335
v 5.277853 11.509613 0.152335
v -5.388832 11.509613 0.152335
v -2.892668 11.509613 0.152335
v -2.892668 11.509613 -0.746607
v 2.830052 11.508219 0.152335
v 2.830052 11.508219 -0.746607
v 6.796906 5.703067 -0.746607
v -6.907884 5.703067 -0.746607
v 6.796906 5.703067 0.152335
v -6.907884 5.703067 0.152335
v -2.252785 16.417135 -0.746607
v -2.252785 16.417135 0.152335
v 1.968241 16.417135 0.152335
v 1.968241 16.417135 -0.746607
v 3.917916 16.417135 -0.746607
v -4.028894 16.417135 -0.746607
v 0.376682 21.349636 -0.746607
v -0.487660 21.349636 -0.746607
v 0.376682 21.349636 0.152335
v -0.487660 21.349636 0.152335
v 3.917916 16.417135 0.152335
v -4.028894 16.417135 0.152335
v -0.426047 11.509420 0.152335
v -0.428437 5.703067 0.152335
v -0.428437 5.703067 -0.746607
v -0.426047 11.509420 -0.746607
v 0.403693 11.508402 0.152335
v 0.408941 5.703066 0.152335
v 0.408941 5.703066 -0.746607
v 0.403693 11.508402 -0.746607
v 0.408941 -0.022555 0.152335
v 0.408941 -0.022555 -0.746607
v -0.428437 -0.022553 0.152335
v -0.428437 -0.022553 -0.746607
v 0.408941 0.660273 0.152335
v 0.408941 0.660273 -0.746607
v -0.428437 0.660275 -0.746607
v -0.428437 0.660275 0.152335
v 2.798542 0.673768 0.152335
v 2.798542 0.673768 -0.746607
v 2.798542 -0.036051 0.152335
v 2.798542 -0.036051 -0.746607
v -2.818038 0.673771 -0.746607
v -2.818038 0.673771 0.152335
v -2.818038 -0.036049 -0.746607
v -2.818038 -0.036049 0.152335
v 0.408941 0.660273 -3.047757
v -0.428437 0.660275 -3.047757
v 0.408941 -0.022555 -3.047757
v -0.428437 -0.022553 -3.047757
v -0.428437 0.660275 2.453486
v 0.408941 0.660273 2.453486
v -0.428437 -0.022553 2.453486
v 0.408941 -0.022555 2.453486
v -0.504960 11.509613 -5.630479
v -0.504960 11.509613 5.036205
v -0.504960 16.369987 -0.708398
v -0.504960 16.369987 0.075755
v 0.393982 16.369987 -0.708398
v 0.393982 16.369987 0.075755
v 0.393982 11.509613 -5.630479
v 0.393982 11.509613 5.036205
v 0.393982 11.509613 2.540042
v -0.504960 11.509613 2.540042
v 0.393982 11.508219 -3.182677
v -0.504960 11.508219 -3.182677
v -0.504960 5.703067 -7.149531
v -0.504960 5.703067 6.555258
v 0.393982 5.703067 -7.149531
v 0.393982 5.703067 6.555258
v -0.504960 16.417135 1.900160
v 0.393982 16.417135 1.900160
v 0.393982 16.417135 -2.320867
v -0.504960 16.417135 -2.320867
v -0.504960 16.417135 -4.270542
v -0.504960 16.417135 3.676270
v -0.504960 21.349636 -0.729306
v -0.504960 21.349636 0.135035
v 0.393982 21.349636 -0.729306
v 0.393982 21.349636 0.135035
v 0.393982 16.417135 -4.270542
v 0.393982 16.417135 3.676270
v 0.393982 11.509420 0.073422
v 0.393982 5.703067 0.075812
v -0.504960 5.703067 0.075812
v -0.504960 11.509420 0.073422
v 0.393982 11.508402 -0.756319
v 0.393982 5.703066 -0.761565
v -0.504960 5.703066 -0.761565
v -0.504960 11.508402 -0.756319
vt 0.375000 0.000000
vt 0.625000 0.000000
vt 0.451605 0.241854
vt 0.554636 0.237772
vt 0.460838 0.519957
vt 0.548644 0.517729
vt 0.375000 0.750000
vt 0.625000 0.750000
vt 0.375000 1.000000
vt 0.625000 1.000000
vt 0.875000 0.000000
vt 0.125000 0.000000
vt 0.566833 0.750126
vt 0.569293 -0.000010
vt 0.566592 0.999656
vt 0.432048 0.750197
vt 0.429925 -0.000039
vt 0.432277 0.999674
vt 0.425293 0.207269
vt 0.375000 0.000000
vt 0.625000 0.000000
vt 0.570593 0.203081
vt 0.375000 0.750000
vt 0.432550 0.532153
vt 0.559878 0.539776
vt 0.625000 0.750000
vt 0.375000 1.000000
vt 0.625000 1.000000
vt 0.125000 0.000000
vt 0.132921 0.171592
vt 0.875000 0.000000
vt 0.867071 0.172186
vt 0.601750 0.201832
vt 0.605066 0.539223
vt 0.866201 0.182417
vt 0.134114 0.191217
vt 0.412287 0.544597
vt 0.399628 0.204093
vt 0.375000 0.000000
vt 0.435633 0.000011
vt 0.431501 0.258750
vt 0.427664 0.499854
vt 0.436156 0.750176
vt 0.375000 0.750000
vt 0.436320 0.999770
vt 0.375000 1.000000
vt 0.625000 0.000000
vt 0.875000 0.000000
vt 0.861158 0.251945
vt 0.571290 0.257788
vt 0.125000 0.000000
vt 0.139542 0.252186
vt 0.569462 0.750091
vt 0.569130 0.999814
vt 0.570071 -0.000002
vt 0.576009 0.499872
vt 0.625000 0.750000
vt 0.625000 1.000000
vt 0.529151 0.752422
vt 0.471604 0.752359
vt 0.473481 -0.002449
vt 0.474505 0.999587
vt 0.525603 -0.002456
vt 0.525477 0.999599
vt 0.542306 0.538724
vt 0.548232 0.750135
vt 0.590499 0.750000
vt 0.590499 0.000000
vt 0.590499 1.000000
vt 0.546542 0.204068
vt 0.449272 0.533154
vt 0.449749 0.750188
vt 0.407832 0.750000
vt 0.407832 0.000000
vt 0.407832 1.000000
vt 0.449597 0.206174
vt 0.444011 0.000240
vt 0.553333 -0.000218
vt 0.407832 1.000000
vt 0.407832 0.750000
vt 0.590499 0.750000
vt 0.590499 1.000000
vt 0.407832 0.750000
vt 0.407832 1.000000
vt 0.590499 1.000000
vt 0.590499 0.750000
vt 0.407832 1.000000
vt 0.407832 0.750000
vt 0.407832 0.750000
vt 0.407832 1.000000
vt 0.590499 0.750000
vt 0.590499 1.000000
vt 0.590499 1.000000
vt 0.590499 0.750000
vt 0.590499 1.000000
vt 0.407832 1.000000
vt 0.407832 1.000000
vt 0.590499 1.000000
vt 0.407832 0.750000
vt 0.590499 0.750000
vt 0.590499 0.750000
vt 0.407832 0.750000
vt 0.375000 0.000000
vt 0.429925 -0.000039
vt 0.451605 0.241854
vt 0.399628 0.204093
vt 0.460838 0.519957
vt 0.432048 0.750197
vt 0.375000 0.750000
vt 0.412287 0.544597
vt 0.432277 0.999674
vt 0.375000 1.000000
vt 0.548644 0.517729
vt 0.605066 0.539223
vt 0.625000 0.750000
vt 0.566833 0.750126
vt 0.566592 0.999656
vt 0.625000 1.000000
vt 0.554636 0.237772
vt 0.569293 -0.000010
vt 0.625000 0.000000
vt 0.601750 0.201832
vt 0.449749 0.750188
vt 0.553333 -0.000218
vt 0.449597 0.206174
vt 0.425293 0.207269
vt 0.375000 0.000000
vt 0.407832 0.000000
vt 0.375000 0.750000
vt 0.432550 0.532153
vt 0.449272 0.533154
vt 0.407832 0.750000
vt 0.375000 1.000000
vt 0.407832 1.000000
vt 0.125000 0.000000
vt 0.132921 0.171592
vt 0.625000 0.000000
vt 0.875000 0.000000
vt 0.867071 0.172186
vt 0.570593 0.203081
vt 0.875000 0.000000
vt 0.866201 0.182417
vt 0.125000 0.000000
vt 0.134114 0.191217
vt 0.375000 0.000000
vt 0.435633 0.000011
vt 0.431501 0.258750
vt 0.427664 0.499854
vt 0.436156 0.750176
vt 0.375000 0.750000
vt 0.436320 0.999770
vt 0.375000 1.000000
vt 0.625000 0.000000
vt 0.875000 0.000000
vt 0.861158 0.251945
vt 0.571290 0.257788
vt 0.125000 0.000000
vt 0.139542 0.252186
vt 0.471604 0.752359
vt 0.529151 0.752422
vt 0.569462 0.750091
vt 0.569130 0.999814
vt 0.525477 0.999599
vt 0.474505 0.999587
vt 0.525603 -0.002456
vt 0.570071 -0.000002
vt 0.576009 0.499872
vt 0.625000 0.750000
vt 0.625000 1.000000
vt 0.473481 -0.002449
vt 0.548232 0.750135
vt 0.590499 0.750000
vt 0.542306 0.538724
vt 0.559878 0.539776
vt 0.625000 0.750000
vt 0.590499 1.000000
vt 0.625000 1.000000
vt 0.546542 0.204068
vt 0.590499 0.000000
vt 0.444011 0.000240
vn 0.000000 0.000000 -1.000000
vn 0.000000 0.000000 -1.000000
vn 0.000000 0.000000 -1.000000
vn 0.000000 0.000000 -1.000000
vn -0.000000 0.000000 1.000000
vn -0.000000 0.000000 1.000000
vn -0.000000 0.000000 1.000000
vn -0.000000 0.000000 1.000000
vn 0.000570 -1.000000 0.000000
vn 0.000570 -1.000000 0.000000
vn 0.000570 -1.000000 0.000000
vn 0.000570 -1.000000 0.000000
vn 0.000000 0.000000 1.000000
vn 0.000000 0.000000 1.000000
vn 0.000000 0.000000 1.000000
vn -0.000000 0.000000 1.000000
vn 0.000000 -1.000000 0.000001
vn 0.000000 -1.000000 0.000001
vn 0.000000 -1.000000 0.000001
vn 0.000000 -1.000000 0.000001
vn 0.000000 0.000000 -1.000000
vn 0.000000 0.000000 -1.000000
vn 0.000000 0.000000 -1.000000
vn 0.000000 0.000000 -1.000000
vn -0.000000 0.000000 1.000000
vn -0.000000 0.000000 1.000000
vn -0.000000 0.000000 1.000000
vn 0.000000 0.000000 -1.000000
vn 0.000000 0.000000 -1.000000
vn 0.000000 0.000000 -1.000000
vn -0.000000 0.000000 -1.000000
vn 0.000000 0.000000 -1.000000
vn 0.000000 0.000000 -1.000000
vn -0.000000 0.000000 -1.000000
vn -0.000000 0.000000 1.000000
vn -0.000000 0.000000 1.000000
vn 0.000000 0.000000 1.000000
vn -0.000000 0.000000 1.000000
vn 0.000000 -1.000000 0.000000
vn 0.000000 -1.000000 0.000000
vn 0.000000 -1.000000 0.000000
vn 0.000000 -1.000000 0.000000
vn 0.825644 0.564191 0.000000
vn 0.825644 0.564191 0.000000
vn 0.825645 0.564191 0.000000
vn 0.825645 0.564191 0.000000
vn -0.822504 0.568760 0.000000
vn -0.822504 0.568760 0.000000
vn -0.822504 0.568760 0.000000
vn -0.822504 0.568760 0.000000
vn -0.842643 0.538473 0.000000
vn -0.842643 0.538473 0.000000
vn -0.842643 0.538473 0.000000
vn -0.842643 0.538473 0.000000
vn 0.829081 0.559129 0.000000
vn 0.829081 0.559129 0.000000
vn 0.829081 0.559129 0.000000
vn 0.829081 0.559129 0.000000
vn 0.000000 0.000000 -1.000000
vn 0.000000 0.000000 -1.000000
vn 0.000000 0.000000 -1.000000
vn 0.000000 0.000000 1.000000
vn 0.000000 0.000000 1.000000
vn 0.000000 0.000000 1.000000
vn 0.000000 -1.000000 0.000000
vn 0.000000 -1.000000 0.000000
vn 0.000000 -1.000000 0.000000
vn 0.000000 -1.000000 0.000000
vn -0.812328 0.583201 0.000000
vn -0.812328 0.583201 0.000000
vn -0.812328 0.583201 0.000000
vn -0.812328 0.583201 0.000000
vn 0.812328 0.583201 0.000000
vn 0.812328 0.583201 0.000000
vn 0.812328 0.583201 0.000000
vn 0.812328 0.583201 0.000000
vn 0.000000 -1.000000 -0.000001
vn 0.000000 -1.000000 -0.000001
vn 0.000000 -1.000000 -0.000001
vn 0.000000 -1.000000 -0.000001
vn 0.000000 -1.000000 -0.000001
vn 0.000000 -1.000000 -0.000001
vn 0.000000 -1.000000 -0.000001
vn 0.000000 -1.000000 -0.000001
vn 0.000000 0.000000 -1.000000
vn 0.000000 0.000000 -1.000000
vn 0.000000 0.000000 -1.000000
vn 0.000000 1.000000 0.000000
vn 0.000000 1.000000 0.000000
vn 0.000000 1.000000 0.000000
vn 0.000000 1.000000 0.000000
vn 0.000000 0.000000 1.000000
vn 0.000000 0.000000 1.000000
vn 0.000000 0.000000 1.000000
vn -0.000000 0.000000 1.000000
vn -0.000000 0.000000 1.000000
vn 0.000000 0.000000 1.000000
vn 0.000000 -1.000000 0.000000
vn 0.000000 -1.000000 0.000000
vn 0.000000 -1.000000 0.000000
vn 0.000000 -1.000000 0.000000
vn 0.000000 0.000000 -1.000000
vn 0.000000 0.000000 -1.000000
vn 0.000000 0.000000 -1.000000
vn -0.000000 0.000000 1.000000
vn -0.000000 0.000000 1.000000
vn -0.000000 0.000000 1.000000
vn 0.000000 0.000000 1.000000
vn 0.000000 0.000000 1.000000
vn -0.000000 0.000000 1.000000
vn -0.000000 0.000000 1.000000
vn 0.000000 0.000000 -1.000000
vn 0.000000 0.000000 -1.000000
vn 0.000000 0.000000 -1.000000
vn 0.000000 0.000000 -1.000000
vn 0.000000 0.000000 -1.000000
vn 0.000000 0.000000 -1.000000
vn 0.000000 0.000000 -1.000000
vn -0.000000 0.000000 1.000000
vn 0.000000 0.000000 1.000000
vn -0.000000 0.000000 1.000000
vn 0.000000 0.000000 1.000000
vn 0.000000 0.000000 1.000000
vn 0.000000 0.000000 1.000000
vn 0.000000 0.000000 1.000000
vn 0.000000 -1.000000 0.000000
vn 0.000000 -1.000000 0.000000
vn 0.000000 -1.000000 0.000000
vn 0.000000 -1.000000 0.000000
vn 0.000000 0.000000 -1.000000
vn -0.000000 0.000000 -1.000000
vn -0.000000 0.000000 -1.000000
vn 0.000000 0.000000 -1.000000
vn -0.000000 0.000000 1.000000
vn -0.000000 0.000000 1.000000
vn 0.000000 0.000000 1.000000
vn -0.000000 0.000000 1.000000
vn -0.000000 0.000000 1.000000
vn 0.000000 0.000000 1.000000
vn 0.000000 0.000000 1.000000
vn 0.000000 0.000000 1.000000
vn -0.002514 -0.999997 0.000000
vn -0.002514 -0.999997 0.000000
vn 0.002511 -0.999997 0.000000
vn 0.002511 -0.999997 0.000000
vn -0.000000 0.000000 -1.000000
vn -0.000000 0.000000 -1.000000
vn -0.000000 0.000000 -1.000000
vn -0.000000 0.000000 -1.000000
vn 0.000000 0.000000 -1.000000
vn 0.000000 0.000000 -1.000000
vn 0.000001 0.000000 -1.000000
vn 0.000000 0.000000 -1.000000
vn 0.000001 0.000000 -1.000000
vn 0.000000 0.000000 -1.000000
vn 0.000000 0.000000 -1.000000
vn 1.000000 0.000000 0.000000
vn 1.000000 0.000000 0.000000
vn 1.000000 0.000000 0.000000
vn 1.000000 0.000000 0.000000
vn 0.000000 0.000000 1.000000
vn 0.000000 0.000000 1.000000
vn 0.000000 0.000000 1.000000
vn 0.000000 0.000000 1.000000
vn -1.000000 0.000000 0.000000
vn -1.000000 0.000000 0.000000
vn -1.000000 0.000000 0.000000
vn -1.000000 0.000000 0.000000
vn 0.000000 0.000000 -1.000000
vn 0.000000 0.000000 -1.000000
vn 0.000000 0.000000 -1.000000
vn 0.000000 0.000000 -1.000000
vn 1.000000 0.000000 0.000000
vn 1.000000 0.000000 0.000000
vn 1.000000 0.000000 0.000000
vn 1.000000 0.000000 0.000000
vn 0.000000 0.000000 -1.000000
vn 0.000000 0.000000 -1.000000
vn 0.000000 0.000000 -1.000000
vn 0.000000 0.000000 -1.000000
vn -1.000000 0.000000 0.000000
vn -1.000000 0.000000 0.000000
vn -1.000000 0.000000 0.000000
vn -1.000000 0.000000 0.000000
vn 0.000000 0.000000 1.000000
vn 0.000000 0.000000 1.000000
vn 0.000000 0.000000 1.000000
vn 0.000000 0.000000 1.000000
vn -0.005648 0.999984 0.000000
vn -0.005648 0.999984 0.000000
vn -0.005648 0.999984 0.000000
vn -0.005648 0.999984 0.000000
vn -0.000000 0.000000 1.000000
vn -0.000000 0.000000 1.000000
vn -0.000000 0.000000 1.000000
vn -0.000000 0.000000 1.000000
vn -0.002514 -0.999997 0.000000
vn -0.002514 -0.999997 0.000000
vn -0.005648 -0.999984 0.000000
vn -0.005648 -0.999984 0.000000
vn -0.000000 0.000000 -1.000000
vn -0.000000 0.000000 -1.000000
vn -0.000000 0.000000 -1.000000
vn -0.000000 0.000000 -1.000000
vn 0.005648 0.999984 0.000000
vn 0.005648 0.999984 0.000000
vn 0.005648 0.999984 0.000000
vn 0.005648 0.999984 0.000000
vn 0.000000 0.000000 -1.000000
vn 0.000000 0.000000 -1.000000
vn 0.000000 0.000000 -1.000000
vn 0.000000 0.000000 -1.000000
vn 0.002511 -0.999997 0.000000
vn 0.002511 -0.999997 0.000000
vn 0.005648 -0.999984 0.000000
vn 0.005648 -0.999984 0.000000
vn 0.000000 0.000000 1.000000
vn 0.000000 0.000000 1.000000
vn 0.000000 0.000000 1.000000
vn 0.000000 0.000000 1.000000
vn 0.000003 1.000000 0.000000
vn 0.000003 1.000000 0.000000
vn 0.000003 1.000000 0.000000
vn 0.000003 1.000000 0.000000
vn 1.000000 0.000000 0.000000
vn 1.000000 0.000000 0.000000
vn 1.000000 0.000000 0.000000
vn 1.000000 0.000000 0.000000
vn -0.002514 -0.999997 0.000000
vn 0.002511 -0.999997 0.000000
vn -0.000003 -1.000000 0.000000
vn -0.000003 -1.000000 0.000000
vn -1.000000 0.000000 0.000000
vn -1.000000 0.000000 0.000000
vn -1.000000 0.000000 0.000000
vn -1.000000 0.000000 0.000000
vn 0.000003 1.000000 0.000000
vn 0.000003 1.000000 0.000000
vn 0.000003 1.000000 0.000000
vn 0.000003 1.000000 0.000000
vn -1.000000 0.000000 0.000000
vn -1.000000 0.000000 0.000000
vn -1.000000 0.000000 0.000000
vn -1.000000 0.000000 0.000000
vn 0.002511 -0.999997 0.000000
vn -0.002514 -0.999997 0.000000
vn -0.000003 -1.000000 0.000000
vn -0.000003 -1.000000 0.000000
vn 1.000000 0.000000 0.000000
vn 1.000000 0.000000 0.000000
vn 1.000000 0.000000 0.000000
vn 1.000000 0.000000 0.000000
vn -1.000000 -0.000000 0.000000
vn -1.000000 -0.000000 0.000000
vn -1.000000 -0.000000 0.000000
vn -1.000000 -0.000000 0.000000
vn 1.000000 -0.000000 -0.000000
vn 1.000000 -0.000000 0.000000
vn 1.000000 -0.000000 0.000000
vn 1.000000 -0.000000 0.000000
vn 0.000000 -1.000000 -0.000570
vn 0.000000 -1.000000 -0.000570
vn 0.000000 -1.000000 -0.000570
vn 0.000000 -1.000000 -0.000570
vn 1.000000 -0.000000 -0.000000
vn 1.000000 0.000000 0.000000
vn 1.000000 0.000000 0.000000
vn 1.000000 -0.000000 0.000000
vn 0.000000 -1.000000 -0.000000
vn 0.000000 -1.000000 -0.000000
vn 0.000000 -1.000000 -0.000000
vn 0.000000 -1.000000 -0.000000
vn -1.000000 -0.000000 -0.000000
vn -1.000000 -0.000000 -0.000000
vn -1.000000 -0.000000 -0.000000
vn -1.000000 -0.000000 -0.000000
vn 1.000000 -0.000000 0.000000
vn 1.000000 -0.000000 -0.000000
vn 1.000000 -0.000000 -0.000000
vn -1.000000 -0.000000 -0.000000
vn -1.000000 0.000000 0.000000
vn -1.000000 -0.000000 -0.000000
vn -1.000000 0.000000 -0.000000
vn -1.000000 0.000000 -0.000000
vn -1.000000 0.000000 -0.000000
vn -1.000000 0.000000 -0.000000
vn 1.000000 0.000000 -0.000000
vn 1.000000 0.000000 -0.000000
vn 1.000000 0.000000 -0.000000
vn 1.000000 0.000000 -0.000000
vn 0.000000 -1.000000 -0.000000
vn 0.000000 -1.000000 -0.000000
vn 0.000000 -1.000000 0.000000
vn 0.000000 -1.000000 0.000000
vn 0.000000 0.564191 -0.825645
vn 0.000000 0.564191 -0.825645
vn 0.000000 0.564191 -0.825645
vn 0.000000 0.564191 -0.825645
vn 0.000000 0.568760 0.822504
vn 0.000000 0.568760 0.822504
vn 0.000000 0.568760 0.822504
vn 0.000000 0.568760 0.822504
vn 0.000000 0.538473 0.842643
vn 0.000000 0.538473 0.842643
vn 0.000000 0.538473 0.842643
vn 0.000000 0.538473 0.842643
vn 0.000000 0.559129 -0.829081
vn 0.000000 0.559129 -0.829081
vn 0.000000 0.559129 -0.829081
vn 0.000000 0.559129 -0.829081
vn -1.000000 0.000000 0.000000
vn -1.000000 0.000000 0.000000
vn -1.000000 0.000000 0.000000
vn 1.000000 0.000000 -0.000000
vn 1.000000 0.000000 -0.000000
vn 1.000000 0.000000 0.000000
vn 0.000000 -1.000000 0.000000
vn 0.000000 -1.000000 0.000000
vn 0.000000 -1.000000 0.000000
vn 0.000000 -1.000000 0.000000
vn 0.000000 0.583201 0.812328
vn 0.000000 0.583201 0.812328
vn 0.000000 0.583201 0.812328
vn 0.000000 0.583201 0.812328
vn 0.000000 0.583201 -0.812328
vn 0.000000 0.583201 -0.812328
vn 0.000000 0.583201 -0.812328
vn 0.000000 0.583201 -0.812328
vn 0.000000 -1.000000 0.000000
vn 0.000000 -1.000000 0.000000
vn 0.000000 -1.000000 0.000000
vn 0.000000 -1.000000 0.000000
vn 0.000000 -1.000000 0.000000
vn 0.000000 -1.000000 0.000000
vn 0.000000 -1.000000 0.000000
vn 0.000000 -1.000000 0.000000
vn -1.000000 -0.000000 0.000000
vn -1.000000 -0.000000 0.000000
vn -1.000000 -0.000000 0.000000
vn 0.000000 1.000000 0.000000
vn 0.000000 1.000000 0.000000
vn 0.000000 1.000000 0.000000
vn 0.000000 1.000000 0.000000
vn 1.000000 0.000000 -0.000000
vn 1.000000 0.000000 -0.000000
vn 1.000000 0.000000 -0.000000
vn 1.000000 0.000000 0.000000
vn 1.000000 0.000000 0.000000
vn 1.000000 0.000000 0.000000
vn 0.000000 -1.000000 0.000000
vn 0.000000 -1.000000 0.000000
vn 0.000000 -1.000000 0.000000
vn 0.000000 -1.000000 0.000000
vn -1.000000 -0.000000 0.000000
vn -1.000000 -0.000000 0.000000
vn -1.000000 0.000000 0.000000
vn 1.000000 0.000000 0.000000
vn 1.000000 0.000000 0.000000
vn 1.000000 0.000000 0.000000
vn 1.000000 0.000000 -0.000000
vn 1.000000 0.000000 -0.000000
vn 1.000000 0.000000 0.000000
vn 1.000000 0.000000 0.000000
vn -1.000000 0.000000 0.000000
vn -1.000000 0.000000 0.000000
vn -1.000000 0.000000 0.000000
vn -1.000000 0.000000 0.000000
vn -1.000000 0.000000 0.000000
vn -1.000000 -0.000000 0.000000
vn -1.000000 -0.000000 0.000000
vn 1.000000 -0.000000 -0.000000
vn 1.000000 -0.000000 -0.000000
vn 1.000000 -0.000000 0.000000
vn 1.000000 0.000000 -0.000000
vn 1.000000 0.000000 -0.000000
vn 1.000000 0.000000 0.000000
vn 1.000000 0.000000 0.000000
vn 0.000000 -1.000000 0.000000
vn 0.000000 -1.000000 0.000000
vn 0.000000 -1.000000 0.000000
vn 0.000000 -1.000000 0.000000
vn -1.000000 0.000000 0.000000
vn -1.000000 0.000000 0.000000
vn -1.000000 0.000000 0.000000
vn -1.000000 0.000000 0.000000
vn 1.000000 -0.000000 -0.000000
vn 1.000000 -0.000000 -0.000000
vn 1.000000 -0.000000 -0.000000
vn 1.000000 -0.000000 -0.000000
vn 1.000000 0.000000 -0.000000
vn 1.000000 0.000000 -0.000000
vn 1.000000 0.000000 -0.000000
vn 1.000000 0.000000 -0.000000
vn 0.000000 -1.000000 0.000000
vn 0.000000 -1.000000 0.000000
vn 0.000000 -1.000000 0.000000
vn 0.000000 -1.000000 0.000000
vn -1.000000 0.000000 0.000000
vn -1.000000 0.000000 -0.000000
vn -1.000000 0.000000 -0.000000
vn -1.000000 0.000000 0.000000
vn -1.000000 -0.000000 0.000000
vn -1.000000 -0.000000 0.000000
vn -1.000000 -0.000000 -0.000000
vn -1.000000 -0.000000 0.000000
vn -1.000000 -0.000000 -0.000000
vn -1.000000 0.000000 0.000000
vn -1.000000 -0.000000 -0.000000
s off
g pine2
usemtl xmastree1SG
f 1/1/1 12/17/2 3/3/3 20/38/4
f 5/5/5 11/16/6 7/7/7 19/37/8
f 7/7/9 11/16/10 12/18/11 1/9/12
f 6/6/13 18/34/14 8/8/15 9/13/16
f 10/15/17 9/13/18 8/8/19 2/10/20
f 4/4/21 10/14/22 2/2/23 17/33/24
f 11/16/25 5/5/26 33/72/27
f 4/4/28 32/78/29 10/14/30
f 36/76/31 12/19/32 13/20/33 35/74/34
f 15/23/35 11/24/36 33/71/37 34/73/38
f 13/27/39 15/23/40 34/73/41 35/75/42
f 15/29/43 13/20/44 12/19/45 11/30/46
f 14/21/47 16/31/48 9/32/49 10/22/50
f 2/2/51 8/11/52 18/35/53 17/33/54
f 7/12/55 1/1/56 20/38/57 19/36/58
f 21/39/59 20/40/60 23/41/61
f 25/42/62 19/43/63 27/44/64
f 27/44/65 19/43/66 20/45/67 21/46/68
f 22/47/69 28/48/70 26/49/71 24/50/72
f 27/51/73 21/39/74 23/41/75 25/52/76
f 19/43/77 5/60/78 6/59/79 18/53/80 17/54/81 4/64/82 3/62/83 20/45/84
f 24/50/85 4/63/86 17/55/87
f 25/42/88 23/41/89 24/50/90 26/56/91
f 19/43/92 25/42/93 5/60/94
f 18/53/95 26/56/96 28/57/97
f 17/54/98 18/53/99 28/57/100 22/58/101
f 24/50/102 17/55/103 22/47/104
f 6/59/105 26/56/106 18/53/107
f 5/60/108 25/42/109 26/56/110 6/59/111
f 23/41/112 20/40/113 3/61/114
f 23/41/115 3/61/116 4/63/117 24/50/118
f 29/66/119 6/6/120 9/13/121
f 30/67/122 29/65/123 9/25/124 16/26/125
f 31/69/126 30/67/127 16/26/128 14/28/129
f 10/22/130 32/70/131 31/68/132 14/21/133
f 33/72/134 5/5/135 6/6/136 29/66/137
f 34/73/138 33/71/139 29/65/140 30/67/141
usemtl xmastree1SG1
f 38/79/142 37/80/143 39/81/144 40/82/145
usemtl xmastree1SG
f 32/70/146 36/76/147 35/74/148 31/68/149
f 3/3/150 12/17/151 36/77/152
f 3/3/153 36/77/154 32/78/155 4/4/156
usemtl xmastree1SG1
f 35/75/157 34/73/158 41/83/159 42/84/160
f 34/73/161 30/67/162 44/86/163 41/83/164
f 30/67/165 31/69/166 43/85/167 44/86/168
f 31/69/169 35/75/170 42/84/171 43/85/172
f 46/87/173 45/88/174 47/89/175 48/90/176
f 54/95/177 53/96/178 55/97/179 56/98/180
f 50/91/181 49/92/182 51/93/183 52/94/184
f 58/99/185 57/100/186 59/101/187 60/102/188
f 42/84/189 41/83/190 45/88/191 46/87/192
f 41/83/193 37/80/194 47/89/195 45/88/196
f 37/80/197 38/79/198 48/90/199 47/89/200
f 38/79/201 42/84/202 46/87/203 48/90/204
f 44/86/205 43/85/206 49/92/207 50/91/208
f 43/85/209 40/82/210 51/93/211 49/92/212
f 40/82/213 39/81/214 52/94/215 51/93/216
f 39/81/217 44/86/218 50/91/219 52/94/220
f 43/85/221 42/84/222 53/96/223 54/95/224
f 42/84/225 38/79/226 55/97/227 53/96/228
f 38/79/229 40/82/230 56/98/231 55/97/232
f 40/82/233 43/85/234 54/95/235 56/98/236
f 41/83/237 44/86/238 57/100/239 58/99/240
f 44/86/241 39/81/242 59/101/243 57/100/244
f 39/81/245 37/80/246 60/102/247 59/101/248
f 37/80/249 41/83/250 58/99/251 60/102/252
usemtl xmastree1SG
f 61/103/253 72/104/254 63/105/255 80/106/256
f 65/107/257 71/108/258 67/109/259 79/110/260
f 67/109/261 71/108/262 72/111/263 61/112/264
f 66/113/265 78/114/266 68/115/267 69/116/268
f 70/117/269 69/116/270 68/115/271 62/118/272
f 64/119/273 70/120/274 62/121/275 77/122/276
f 71/108/277 65/107/278 93/123/279
f 64/119/280 92/124/281 70/120/282
f 96/125/283 72/126/284 73/127/285 95/128/286
f 75/129/287 71/130/288 93/131/289 94/132/290
f 73/133/291 75/129/292 94/132/293 95/134/294
f 75/135/295 73/127/296 72/126/297 71/136/298
f 74/137/299 76/138/300 69/139/301 70/140/302
f 62/121/303 68/141/304 78/142/305 77/122/306
f 67/143/307 61/103/308 80/106/309 79/144/310
f 81/145/311 80/146/312 83/147/313
f 85/148/314 79/149/315 87/150/316
f 87/150/317 79/149/318 80/151/319 81/152/320
f 82/153/321 88/154/322 86/155/323 84/156/324
f 87/157/325 81/145/326 83/147/327 85/158/328
f 79/149/329 65/159/330 66/160/331 78/161/332 77/162/333 64/163/334 63/164/335 80/151/336
f 84/156/337 64/165/338 77/166/339
f 85/148/340 83/147/341 84/156/342 86/167/343
f 79/149/344 85/148/345 65/159/346
f 78/161/347 86/167/348 88/168/349
f 77/162/350 78/161/351 88/168/352 82/169/353
f 84/156/354 77/166/355 82/153/356
f 66/160/357 86/167/358 78/161/359
f 65/159/360 85/148/361 86/167/362 66/160/363
f 83/147/364 80/146/365 63/170/366
f 83/147/367 63/170/368 64/165/369 84/156/370
f 89/171/371 66/113/372 69/116/373
f 90/172/374 89/173/375 69/174/376 76/175/377
f 91/176/378 90/172/379 76/175/380 74/177/381
f 70/140/382 92/178/383 91/179/384 74/137/385
f 93/123/386 65/107/387 66/113/388 89/171/389
f 94/132/390 93/131/391 89/173/392 90/172/393
f 95/134/394 94/132/395 90/172/396 91/176/397
f 92/178/398 96/125/399 95/128/400 91/179/401
f 63/105/402 72/104/403 96/180/404
f 63/105/405 96/180/406 92/124/407 64/119/408
