# Blender 3.3.1
# www.blender.org
mtllib Ground.mtl
o 円柱
v 0.000000 -0.500000 -10.000000
v 0.000000 0.500000 -10.000000
v 1.950903 -0.500000 -9.807853
v 1.950903 0.500000 -9.807853
v 3.826835 -0.500000 -9.238795
v 3.826835 0.500000 -9.238795
v 5.555702 -0.500000 -8.314696
v 5.555702 0.500000 -8.314696
v 7.071068 -0.500000 -7.071068
v 7.071068 0.500000 -7.071068
v 8.314696 -0.500000 -5.555702
v 8.314696 0.500000 -5.555702
v 9.238795 -0.500000 -3.826835
v 9.238795 0.500000 -3.826835
v 9.807853 -0.500000 -1.950903
v 9.807853 0.500000 -1.950903
v 10.000000 -0.500000 0.000000
v 10.000000 0.500000 0.000000
v 9.807853 -0.500000 1.950903
v 9.807853 0.500000 1.950903
v 9.238795 -0.500000 3.826835
v 9.238795 0.500000 3.826835
v 8.314696 -0.500000 5.555702
v 8.314696 0.500000 5.555702
v 7.071068 -0.500000 7.071068
v 7.071068 0.500000 7.071068
v 5.555702 -0.500000 8.314696
v 5.555702 0.500000 8.314696
v 3.826835 -0.500000 9.238795
v 3.826835 0.500000 9.238795
v 1.950903 -0.500000 9.807853
v 1.950903 0.500000 9.807853
v 0.000000 -0.500000 10.000000
v 0.000000 0.500000 10.000000
v -1.950903 -0.500000 9.807853
v -1.950903 0.500000 9.807853
v -3.826835 -0.500000 9.238795
v -3.826835 0.500000 9.238795
v -5.555702 -0.500000 8.314696
v -5.555702 0.500000 8.314696
v -7.071068 -0.500000 7.071068
v -7.071068 0.500000 7.071068
v -8.314696 -0.500000 5.555702
v -8.314696 0.500000 5.555702
v -9.238795 -0.500000 3.826835
v -9.238795 0.500000 3.826835
v -9.807853 -0.500000 1.950903
v -9.807853 0.500000 1.950903
v -10.000000 -0.500000 0.000000
v -10.000000 0.500000 0.000000
v -9.807853 -0.500000 -1.950903
v -9.807853 0.500000 -1.950903
v -9.238795 -0.500000 -3.826835
v -9.238795 0.500000 -3.826835
v -8.314696 -0.500000 -5.555702
v -8.314696 0.500000 -5.555702
v -7.071068 -0.500000 -7.071068
v -7.071068 0.500000 -7.071068
v -5.555702 -0.500000 -8.314696
v -5.555702 0.500000 -8.314696
v -3.826835 -0.500000 -9.238795
v -3.826835 0.500000 -9.238795
v -1.950903 -0.500000 -9.807853
v -1.950903 0.500000 -9.807853
v 0.000000 0.077346 -10.000000
v 1.950903 0.077346 -9.807853
v 3.826835 0.077346 -9.238795
v 5.555702 0.077346 -8.314696
v 7.071068 0.077346 -7.071068
v 8.314696 0.077346 -5.555702
v 9.238795 0.077346 -3.826835
v 9.807853 0.077346 -1.950903
v 10.000000 0.077346 0.000000
v 9.807853 0.077346 1.950903
v 9.238795 0.077346 3.826835
v 8.314696 0.077346 5.555702
v 7.071068 0.077346 7.071068
v 5.555702 0.077346 8.314696
v 3.826835 0.077346 9.238795
v 1.950903 0.077346 9.807853
v 0.000000 0.077346 10.000000
v -1.950903 0.077346 9.807853
v -3.826835 0.077346 9.238795
v -5.555702 0.077346 8.314696
v -7.071068 0.077346 7.071068
v -8.314696 0.077346 5.555702
v -9.238795 0.077346 3.826835
v -9.807853 0.077346 1.950903
v -10.000000 0.077346 0.000000
v -9.807853 0.077346 -1.950903
v -9.238795 0.077346 -3.826835
v -8.314696 0.077346 -5.555702
v -7.071068 0.077346 -7.071068
v -5.555702 0.077346 -8.314696
v -3.826835 0.077346 -9.238795
v -1.950903 0.077346 -9.807853
v 1.950903 -0.211327 -9.807853
v 3.826835 -0.211327 -9.238795
v 5.555702 -0.211327 -8.314696
v 7.071068 -0.211327 -7.071068
v 8.314696 -0.211327 -5.555702
v 9.238795 -0.211327 -3.826835
v 9.807853 -0.211327 -1.950903
v 10.000000 -0.211327 0.000000
v 9.807853 -0.211327 1.950903
v 9.238795 -0.211327 3.826835
v 8.314696 -0.211327 5.555702
v 7.071068 -0.211327 7.071068
v 5.555702 -0.211327 8.314696
v 3.826835 -0.211327 9.238795
v 1.950903 -0.211327 9.807853
v 0.000000 -0.211327 10.000000
v -1.950903 -0.211327 9.807853
v -3.826835 -0.211327 9.238795
v -5.555702 -0.211327 8.314696
v -7.071068 -0.211327 7.071068
v -8.314696 -0.211327 5.555702
v -9.238795 -0.211327 3.826835
v -9.807853 -0.211327 1.950903
v -10.000000 -0.211327 0.000000
v -9.807853 -0.211327 -1.950903
v -9.238795 -0.211327 -3.826835
v -8.314696 -0.211327 -5.555702
v -7.071068 -0.211327 -7.071068
v -5.555702 -0.211327 -8.314696
v -3.826835 -0.211327 -9.238795
v -1.950903 -0.211327 -9.807853
v 0.000000 -0.211327 -10.000000
vn 0.0980 -0.0000 -0.9952
vn 0.2903 -0.0000 -0.9569
vn 0.4714 -0.0000 -0.8819
vn 0.6344 -0.0000 -0.7730
vn 0.7730 -0.0000 -0.6344
vn 0.8819 -0.0000 -0.4714
vn 0.9569 -0.0000 -0.2903
vn 0.9952 -0.0000 -0.0980
vn 0.9952 -0.0000 0.0980
vn 0.9569 -0.0000 0.2903
vn 0.8819 -0.0000 0.4714
vn 0.7730 -0.0000 0.6344
vn 0.6344 -0.0000 0.7730
vn 0.4714 -0.0000 0.8819
vn 0.2903 -0.0000 0.9569
vn 0.0980 -0.0000 0.9952
vn -0.0980 -0.0000 0.9952
vn -0.2903 -0.0000 0.9569
vn -0.4714 -0.0000 0.8819
vn -0.6344 -0.0000 0.7730
vn -0.7730 -0.0000 0.6344
vn -0.8819 -0.0000 0.4714
vn -0.9569 -0.0000 0.2903
vn -0.9952 -0.0000 0.0980
vn -0.9952 -0.0000 -0.0980
vn -0.9569 -0.0000 -0.2903
vn -0.8819 -0.0000 -0.4714
vn -0.7730 -0.0000 -0.6344
vn -0.6344 -0.0000 -0.7730
vn -0.4714 -0.0000 -0.8819
vn -0.0000 1.0000 -0.0000
vn -0.2903 -0.0000 -0.9569
vn -0.0980 -0.0000 -0.9952
vn -0.0000 -1.0000 -0.0000
vt 0.505859 0.224442
vt 0.792506 0.190616
vt 0.000000 0.584073
vt 0.291525 0.327033
vt 0.513595 0.185552
vt 0.772803 0.190616
vt 0.270895 0.327033
vt 0.000000 0.623726
vt 0.528770 0.148917
vt 0.754243 0.190616
vt 0.251463 0.327033
vt 0.007736 0.662616
vt 0.550799 0.115947
vt 0.737540 0.190616
vt 0.233974 0.327033
vt 0.022910 0.699250
vt 0.722023 0.217433
vt 0.578838 0.087909
vt 0.723335 0.190616
vt 0.219102 0.327033
vt 0.234113 0.325551
vt 0.044940 0.732220
vt 0.611808 0.065879
vt 0.705521 0.217433
vt 0.219240 0.325551
vt 0.072979 0.760259
vt 0.648442 0.050705
vt 0.686116 0.217433
vt 0.201751 0.325551
vt 0.105949 0.782289
vt 0.687333 0.042969
vt 0.664554 0.217433
vt 0.182319 0.325551
vt 0.142583 0.797463
vt 0.726985 0.042969
vt 0.641663 0.217433
vt 0.161689 0.325551
vt 0.181473 0.805199
vt 0.765876 0.050705
vt 0.618325 0.217433
vt 0.140656 0.325551
vt 0.221126 0.805199
vt 0.802510 0.065879
vt 0.595435 0.217433
vt 0.120027 0.325551
vt 0.260017 0.797463
vt 0.835480 0.087909
vt 0.573873 0.217433
vt 0.100594 0.325551
vt 0.296651 0.782289
vt 0.723335 0.190616
vt 0.863519 0.115947
vt 0.554468 0.217433
vt 0.083106 0.325551
vt 0.329621 0.760259
vt 0.885549 0.148917
vt 0.709130 0.190616
vt 0.068233 0.325551
vt 0.204229 0.327033
vt 0.357660 0.732220
vt 0.900723 0.185552
vt 0.692417 0.190616
vt 0.186740 0.327033
vt 0.379689 0.699251
vt 0.908459 0.224442
vt 0.673868 0.190616
vt 0.167308 0.327033
vt 0.394864 0.662616
vt 0.908459 0.264095
vt 0.654165 0.190616
vt 0.146678 0.327033
vt 0.402600 0.623726
vt 0.900723 0.302986
vt 0.634076 0.190616
vt 0.125645 0.327033
vt 0.402600 0.584073
vt 0.885549 0.339620
vt 0.614374 0.190616
vt 0.105016 0.327033
vt 0.394864 0.545182
vt 0.863519 0.372590
vt 0.595814 0.190616
vt 0.085583 0.327033
vt 0.379689 0.508548
vt 0.835480 0.400628
vt 0.579111 0.190616
vt 0.068095 0.327033
vt 0.357660 0.475578
vt 0.873076 0.217433
vt 0.802510 0.422658
vt 0.564906 0.190616
vt 0.053222 0.327033
vt 0.370246 0.325551
vt 0.329621 0.447540
vt 0.765876 0.437832
vt 0.853671 0.217433
vt 0.352758 0.325551
vt 0.296651 0.425510
vt 0.726985 0.445568
vt 0.832109 0.217433
vt 0.333325 0.325551
vt 0.260017 0.410335
vt 0.687333 0.445568
vt 0.809219 0.217433
vt 0.312696 0.325551
vt 0.221126 0.402600
vt 0.648442 0.437832
vt 0.785881 0.217433
vt 0.291663 0.325551
vt 0.181474 0.402600
vt 0.611808 0.422658
vt 0.762991 0.217433
vt 0.271033 0.325551
vt 0.142583 0.410335
vt 0.578838 0.400628
vt 0.741429 0.217433
vt 0.251601 0.325551
vt 0.105949 0.425510
vt 0.867560 0.190616
vt 0.550799 0.372590
vt 0.722023 0.217433
vt 0.234112 0.325551
vt 0.370108 0.327033
vt 0.072979 0.447540
vt 0.528770 0.339620
vt 0.850856 0.190616
vt 0.352620 0.327033
vt 0.044940 0.475578
vt 0.513595 0.302985
vt 0.832297 0.190616
vt 0.022910 0.508548
vt 0.333187 0.327033
vt 0.505859 0.264095
vt 0.812594 0.190616
vt 0.007736 0.545182
vt 0.312558 0.327033
vt 0.291525 0.156049
vt 0.835319 0.911574
vt 0.270895 0.156049
vt 0.807106 0.911574
vt 0.251463 0.156049
vt 0.780531 0.911574
vt 0.233974 0.156049
vt 0.756613 0.911574
vt 0.234113 0.154568
vt 0.219102 0.156049
vt 0.738781 0.925511
vt 0.736273 0.911574
vt 0.219240 0.154568
vt 0.713425 0.925511
vt 0.201751 0.154568
vt 0.683610 0.925511
vt 0.182319 0.154568
vt 0.650481 0.925511
vt 0.161689 0.154568
vt 0.615311 0.925511
vt 0.140656 0.154568
vt 0.579453 0.925511
vt 0.120027 0.154568
vt 0.544284 0.925511
vt 0.100594 0.154568
vt 0.511155 0.925511
vt 0.083106 0.154568
vt 0.736273 0.911574
vt 0.481339 0.925511
vt 0.204229 0.156049
vt 0.068233 0.154568
vt 0.715933 0.911574
vt 0.186740 0.156049
vt 0.692015 0.911574
vt 0.167308 0.156049
vt 0.665440 0.911574
vt 0.146678 0.156049
vt 0.637227 0.911574
vt 0.125645 0.156049
vt 0.608462 0.911574
vt 0.105016 0.156049
vt 0.580249 0.911574
vt 0.085583 0.156049
vt 0.553674 0.911574
vt 0.068095 0.156049
vt 0.529756 0.911574
vt 0.370246 0.154568
vt 0.053222 0.156049
vt 0.970866 0.925511
vt 0.509416 0.911574
vt 0.352758 0.154568
vt 0.941051 0.925511
vt 0.333325 0.154568
vt 0.907922 0.925511
vt 0.312696 0.154568
vt 0.872753 0.925511
vt 0.291663 0.154568
vt 0.836894 0.925511
vt 0.271033 0.154568
vt 0.801725 0.925511
vt 0.251601 0.154568
vt 0.768596 0.925511
vt 0.370108 0.156049
vt 0.234112 0.154568
vt 0.942790 0.911574
vt 0.738781 0.925511
vt 0.352620 0.156049
vt 0.918872 0.911574
vt 0.333187 0.156049
vt 0.892297 0.911574
vt 0.312558 0.156049
vt 0.864084 0.911574
vt 0.807106 0.826962
vt 0.772827 0.307398
vt 0.780531 0.826962
vt 0.754259 0.307398
vt 0.756613 0.826962
vt 0.737549 0.307398
vt 0.738781 0.819904
vt 0.736273 0.826962
vt 0.723338 0.307398
vt 0.722027 0.334215
vt 0.713425 0.819904
vt 0.705517 0.334215
vt 0.683610 0.819904
vt 0.686104 0.334215
vt 0.650481 0.819904
vt 0.664533 0.334215
vt 0.615311 0.819904
vt 0.641633 0.334215
vt 0.579453 0.819904
vt 0.618284 0.334215
vt 0.544284 0.819904
vt 0.595385 0.334215
vt 0.511155 0.819904
vt 0.573814 0.334215
vt 0.736273 0.826962
vt 0.481339 0.819904
vt 0.554400 0.334215
vt 0.723338 0.307398
vt 0.715933 0.826962
vt 0.709127 0.307398
vt 0.692015 0.826962
vt 0.692417 0.307398
vt 0.665440 0.826962
vt 0.673850 0.307398
vt 0.637227 0.826962
vt 0.654139 0.307398
vt 0.608462 0.826962
vt 0.634041 0.307398
vt 0.580249 0.826962
vt 0.614330 0.307398
vt 0.553674 0.826962
vt 0.595763 0.307398
vt 0.529756 0.826962
vt 0.579053 0.307398
vt 0.970866 0.819904
vt 0.509416 0.826962
vt 0.564842 0.307398
vt 0.873144 0.334215
vt 0.941051 0.819904
vt 0.853731 0.334215
vt 0.907922 0.819904
vt 0.832159 0.334215
vt 0.872753 0.819904
vt 0.809260 0.334215
vt 0.836894 0.819904
vt 0.785911 0.334215
vt 0.801725 0.819904
vt 0.763012 0.334215
vt 0.768596 0.819904
vt 0.741440 0.334215
vt 0.942790 0.826962
vt 0.738781 0.819904
vt 0.722027 0.334215
vt 0.867624 0.307398
vt 0.918872 0.826962
vt 0.850914 0.307398
vt 0.892297 0.826962
vt 0.832346 0.307398
vt 0.864084 0.826962
vt 0.812635 0.307398
vt 0.835319 0.826962
vt 0.792538 0.307398
s 0
usemtl マテリアル
f 2/4/1 66/139/1 65/137/1
f 4/7/2 67/141/2 66/139/2
f 6/11/3 68/143/3 67/141/3
f 8/15/4 69/146/4 68/143/4
f 10/21/5 70/149/5 69/145/5
f 12/25/6 71/151/6 70/149/6
f 14/29/7 72/153/7 71/151/7
f 16/33/8 73/155/8 72/153/8
f 18/37/9 74/157/9 73/155/9
f 20/41/10 75/159/10 74/157/10
f 22/45/11 76/161/11 75/159/11
f 24/49/12 77/163/12 76/161/12
f 26/54/13 78/167/13 77/163/13
f 28/59/14 79/169/14 78/166/14
f 30/63/15 80/171/15 79/169/15
f 32/67/16 81/173/16 80/171/16
f 34/71/17 82/175/17 81/173/17
f 36/75/18 83/177/18 82/175/18
f 38/79/19 84/179/19 83/177/19
f 40/83/20 85/181/20 84/179/20
f 42/87/21 86/184/21 85/181/21
f 44/93/22 87/187/22 86/183/22
f 46/97/23 88/189/23 87/187/23
f 48/101/24 89/191/24 88/189/24
f 50/105/25 90/193/25 89/191/25
f 52/109/26 91/195/26 90/193/26
f 54/113/27 92/197/27 91/195/27
f 56/117/28 93/200/28 92/197/28
f 58/123/29 94/203/29 93/199/29
f 60/127/30 95/205/30 94/203/30
f 38/80/31 22/46/31 6/12/31
f 62/132/32 96/207/32 95/205/32
f 64/136/33 65/137/33 96/207/33
f 31/65/34 47/99/34 63/133/34
f 96/208/33 128/279/33 127/277/33
f 95/206/32 127/277/32 126/275/32
f 94/204/30 126/275/30 125/273/30
f 93/201/29 125/273/29 124/269/29
f 92/198/28 124/270/28 123/267/28
f 91/196/27 123/267/27 122/265/27
f 90/194/26 122/265/26 121/263/26
f 89/192/25 121/263/25 120/261/25
f 88/190/24 120/261/24 119/259/24
f 87/188/23 119/259/23 118/257/23
f 86/185/22 118/257/22 117/253/22
f 85/182/21 117/254/21 116/251/21
f 84/180/20 116/251/20 115/249/20
f 83/178/19 115/249/19 114/247/19
f 82/176/18 114/247/18 113/245/18
f 81/174/17 113/245/17 112/243/17
f 80/172/16 112/243/16 111/241/16
f 79/170/15 111/241/15 110/239/15
f 78/168/14 110/239/14 109/237/14
f 77/164/13 109/237/13 108/233/13
f 76/162/12 108/234/12 107/231/12
f 75/160/11 107/231/11 106/229/11
f 74/158/10 106/229/10 105/227/10
f 73/156/9 105/227/9 104/225/9
f 72/154/8 104/225/8 103/223/8
f 71/152/7 103/223/7 102/221/7
f 70/150/6 102/221/6 101/219/6
f 69/147/5 101/219/5 100/215/5
f 68/144/4 100/216/4 99/213/4
f 67/142/3 99/213/3 98/211/3
f 66/140/2 98/211/2 97/209/2
f 65/138/1 97/209/1 128/279/1
f 128/280/1 3/6/1 1/2/1
f 97/210/2 5/10/2 3/6/2
f 98/212/3 7/14/3 5/10/3
f 99/214/4 9/19/4 7/14/4
f 100/218/5 11/24/5 9/17/5
f 101/220/6 13/28/6 11/24/6
f 102/222/7 15/32/7 13/28/7
f 103/224/8 17/36/8 15/32/8
f 104/226/9 19/40/9 17/36/9
f 105/228/10 21/44/10 19/40/10
f 106/230/11 23/48/11 21/44/11
f 107/232/12 25/53/12 23/48/12
f 108/236/13 27/57/13 25/51/13
f 109/238/14 29/62/14 27/57/14
f 110/240/15 31/66/15 29/62/15
f 111/242/16 33/70/16 31/66/16
f 112/244/17 35/74/17 33/70/17
f 113/246/18 37/78/18 35/74/18
f 114/248/19 39/82/19 37/78/19
f 115/250/20 41/86/20 39/82/20
f 116/252/21 43/91/21 41/86/21
f 117/256/22 45/96/22 43/89/22
f 118/258/23 47/100/23 45/96/23
f 119/260/24 49/104/24 47/100/24
f 120/262/25 51/108/25 49/104/25
f 121/264/26 53/112/26 51/108/26
f 122/266/27 55/116/27 53/112/27
f 123/268/28 57/121/28 55/116/28
f 124/272/29 59/126/29 57/119/29
f 125/274/30 61/130/30 59/126/30
f 126/276/32 63/134/32 61/130/32
f 127/278/33 1/2/33 63/134/33
f 2/4/1 4/7/1 66/139/1
f 4/7/2 6/11/2 67/141/2
f 6/11/3 8/15/3 68/143/3
f 8/15/4 10/20/4 69/146/4
f 10/21/5 12/25/5 70/149/5
f 12/25/6 14/29/6 71/151/6
f 14/29/7 16/33/7 72/153/7
f 16/33/8 18/37/8 73/155/8
f 18/37/9 20/41/9 74/157/9
f 20/41/10 22/45/10 75/159/10
f 22/45/11 24/49/11 76/161/11
f 24/49/12 26/54/12 77/163/12
f 26/54/13 28/58/13 78/167/13
f 28/59/14 30/63/14 79/169/14
f 30/63/15 32/67/15 80/171/15
f 32/67/16 34/71/16 81/173/16
f 34/71/17 36/75/17 82/175/17
f 36/75/18 38/79/18 83/177/18
f 38/79/19 40/83/19 84/179/19
f 40/83/20 42/87/20 85/181/20
f 42/87/21 44/92/21 86/184/21
f 44/93/22 46/97/22 87/187/22
f 46/97/23 48/101/23 88/189/23
f 48/101/24 50/105/24 89/191/24
f 50/105/25 52/109/25 90/193/25
f 52/109/26 54/113/26 91/195/26
f 54/113/27 56/117/27 92/197/27
f 56/117/28 58/122/28 93/200/28
f 58/123/29 60/127/29 94/203/29
f 60/127/30 62/132/30 95/205/30
f 6/12/31 4/8/31 2/3/31
f 2/3/31 64/135/31 6/12/31
f 64/135/31 62/131/31 6/12/31
f 62/131/31 60/128/31 58/124/31
f 58/124/31 56/118/31 54/114/31
f 54/114/31 52/110/31 50/106/31
f 50/106/31 48/102/31 54/114/31
f 48/102/31 46/98/31 54/114/31
f 46/98/31 44/94/31 42/88/31
f 42/88/31 40/84/31 38/80/31
f 38/80/31 36/76/31 30/64/31
f 36/76/31 34/72/31 30/64/31
f 34/72/31 32/68/31 30/64/31
f 30/64/31 28/60/31 26/55/31
f 26/55/31 24/50/31 22/46/31
f 22/46/31 20/42/31 14/30/31
f 20/42/31 18/38/31 14/30/31
f 18/38/31 16/34/31 14/30/31
f 14/30/31 12/26/31 10/22/31
f 10/22/31 8/16/31 6/12/31
f 62/131/31 58/124/31 6/12/31
f 58/124/31 54/114/31 6/12/31
f 46/98/31 42/88/31 54/114/31
f 42/88/31 38/80/31 54/114/31
f 30/64/31 26/55/31 38/80/31
f 26/55/31 22/46/31 38/80/31
f 14/30/31 10/22/31 22/46/31
f 10/22/31 6/12/31 22/46/31
f 6/12/31 54/114/31 38/80/31
f 62/132/32 64/136/32 96/207/32
f 64/136/33 2/4/33 65/137/33
f 63/133/34 1/1/34 3/5/34
f 3/5/34 5/9/34 7/13/34
f 7/13/34 9/18/34 11/23/34
f 11/23/34 13/27/34 15/31/34
f 15/31/34 17/35/34 19/39/34
f 19/39/34 21/43/34 23/47/34
f 23/47/34 25/52/34 27/56/34
f 27/56/34 29/61/34 31/65/34
f 31/65/34 33/69/34 35/73/34
f 35/73/34 37/77/34 39/81/34
f 39/81/34 41/85/34 43/90/34
f 43/90/34 45/95/34 47/99/34
f 47/99/34 49/103/34 51/107/34
f 51/107/34 53/111/34 55/115/34
f 55/115/34 57/120/34 59/125/34
f 59/125/34 61/129/34 63/133/34
f 63/133/34 3/5/34 15/31/34
f 3/5/34 7/13/34 15/31/34
f 7/13/34 11/23/34 15/31/34
f 15/31/34 19/39/34 31/65/34
f 19/39/34 23/47/34 31/65/34
f 23/47/34 27/56/34 31/65/34
f 31/65/34 35/73/34 47/99/34
f 35/73/34 39/81/34 47/99/34
f 39/81/34 43/90/34 47/99/34
f 47/99/34 51/107/34 63/133/34
f 51/107/34 55/115/34 63/133/34
f 55/115/34 59/125/34 63/133/34
f 63/133/34 15/31/34 31/65/34
f 96/208/33 65/138/33 128/279/33
f 95/206/32 96/208/32 127/277/32
f 94/204/30 95/206/30 126/275/30
f 93/201/29 94/204/29 125/273/29
f 92/198/28 93/202/28 124/270/28
f 91/196/27 92/198/27 123/267/27
f 90/194/26 91/196/26 122/265/26
f 89/192/25 90/194/25 121/263/25
f 88/190/24 89/192/24 120/261/24
f 87/188/23 88/190/23 119/259/23
f 86/185/22 87/188/22 118/257/22
f 85/182/21 86/186/21 117/254/21
f 84/180/20 85/182/20 116/251/20
f 83/178/19 84/180/19 115/249/19
f 82/176/18 83/178/18 114/247/18
f 81/174/17 82/176/17 113/245/17
f 80/172/16 81/174/16 112/243/16
f 79/170/15 80/172/15 111/241/15
f 78/168/14 79/170/14 110/239/14
f 77/164/13 78/168/13 109/237/13
f 76/162/12 77/165/12 108/234/12
f 75/160/11 76/162/11 107/231/11
f 74/158/10 75/160/10 106/229/10
f 73/156/9 74/158/9 105/227/9
f 72/154/8 73/156/8 104/225/8
f 71/152/7 72/154/7 103/223/7
f 70/150/6 71/152/6 102/221/6
f 69/147/5 70/150/5 101/219/5
f 68/144/4 69/148/4 100/216/4
f 67/142/3 68/144/3 99/213/3
f 66/140/2 67/142/2 98/211/2
f 65/138/1 66/140/1 97/209/1
f 128/280/1 97/210/1 3/6/1
f 97/210/2 98/212/2 5/10/2
f 98/212/3 99/214/3 7/14/3
f 99/214/4 100/217/4 9/19/4
f 100/218/5 101/220/5 11/24/5
f 101/220/6 102/222/6 13/28/6
f 102/222/7 103/224/7 15/32/7
f 103/224/8 104/226/8 17/36/8
f 104/226/9 105/228/9 19/40/9
f 105/228/10 106/230/10 21/44/10
f 106/230/11 107/232/11 23/48/11
f 107/232/12 108/235/12 25/53/12
f 108/236/13 109/238/13 27/57/13
f 109/238/14 110/240/14 29/62/14
f 110/240/15 111/242/15 31/66/15
f 111/242/16 112/244/16 33/70/16
f 112/244/17 113/246/17 35/74/17
f 113/246/18 114/248/18 37/78/18
f 114/248/19 115/250/19 39/82/19
f 115/250/20 116/252/20 41/86/20
f 116/252/21 117/255/21 43/91/21
f 117/256/22 118/258/22 45/96/22
f 118/258/23 119/260/23 47/100/23
f 119/260/24 120/262/24 49/104/24
f 120/262/25 121/264/25 51/108/25
f 121/264/26 122/266/26 53/112/26
f 122/266/27 123/268/27 55/116/27
f 123/268/28 124/271/28 57/121/28
f 124/272/29 125/274/29 59/126/29
f 125/274/30 126/276/30 61/130/30
f 126/276/32 127/278/32 63/134/32
f 127/278/33 128/280/33 1/2/33
