# Blender v2.92.0 OBJ File: ''
# www.blender.org
mtllib map.mtl
o Cube
v 77.634659 3.062552 -87.245499
v 77.634659 -3.911490 -87.245499
v 77.634659 3.062552 95.501526
v 77.634659 -3.911490 95.501526
v -77.788361 3.062552 -87.245499
v -77.788361 -3.911490 -87.245499
v -77.788361 3.062552 95.501526
v -77.788361 -3.911490 95.501526
v -77.788361 -3.911490 51.820091
v 77.634659 3.062552 51.820091
v -77.788361 3.062552 51.820091
v 77.634659 -3.911490 51.820091
v -77.788361 3.062552 -10.695479
v 77.634659 -3.911490 -10.695479
v -77.788361 -3.911490 -10.695479
v 77.634659 3.062552 -10.695479
v -77.788361 3.062552 -31.661362
v 77.634659 -3.911490 -31.661362
v -77.788361 -3.911490 -31.661362
v 77.634659 3.062552 -31.661362
v -54.072544 -3.911490 -87.245499
v -54.072544 3.062552 95.501526
v -54.072544 -3.911490 95.501526
v -54.072544 3.062552 -87.245499
v -54.072544 -3.911490 51.820091
v -54.072544 3.062552 51.820091
v -54.072544 3.062552 -10.695479
v -54.072544 -3.911490 -10.695479
v -54.072544 -3.911490 -31.661362
v -54.072544 3.062552 -31.661362
v 53.645969 -3.911490 95.501526
v 53.645969 3.062552 -87.245499
v 53.645969 3.062552 51.820091
v 53.645969 3.062552 -10.695479
v 53.645969 3.062552 -31.661362
v 53.645969 -3.911490 -87.245499
v 53.645969 3.062552 95.501526
v 53.645969 -3.911490 51.820091
v 53.645969 -3.911490 -10.695479
v 53.645969 -3.911490 -31.661362
v -34.875797 -3.911490 -87.245499
v -34.875797 3.062552 95.501526
v -34.875797 -3.911490 51.820091
v -34.875797 -3.911490 -10.695479
v -34.875797 -3.911490 -31.661362
v -34.875797 -3.911490 95.501526
v -34.875797 3.062552 -87.245499
v -34.875797 -2.365608 51.820091
v -34.875797 -2.365608 -10.695479
v -34.875797 14.222095 -10.600078
v 35.432831 -3.911490 95.501526
v 35.432831 3.062552 -87.245499
v 35.432831 -2.365608 51.820091
v 35.432831 -2.365608 -10.695479
v 35.432831 14.222095 -10.600078
v 35.432827 -3.911490 -87.245499
v 35.432827 3.062552 95.501526
v 35.432827 -3.911490 51.820091
v 35.432827 -3.911490 -10.695479
v 35.432827 -3.911490 -31.661362
v -77.788361 3.062552 -46.085670
v 77.634659 -3.911490 -46.085670
v -77.788361 -3.911490 -46.085670
v 77.634659 3.062552 -46.085670
v -54.072544 3.062552 -46.085670
v -54.072544 -3.911490 -46.085670
v 53.645969 3.062552 -46.085670
v 53.645969 -3.911490 -46.085670
v -34.875797 -3.911490 -46.085670
v -34.875797 14.222095 -46.085670
v 35.432831 14.222095 -46.085670
v 35.432827 -3.911490 -46.085670
v -34.875797 3.062552 -10.695479
v -34.875797 3.062552 62.953930
v 35.432831 3.062552 62.953930
v 35.432831 3.062552 -10.695479
vt 0.875000 0.679738
vt 0.836853 0.750000
vt 0.836853 0.679738
vt 0.625000 0.961853
vt 0.375000 1.000000
vt 0.375000 0.961853
vt 0.625000 0.227745
vt 0.375000 0.250000
vt 0.375000 0.227745
vt 0.375000 0.679738
vt 0.336414 0.750000
vt 0.336414 0.679738
vt 0.625000 0.679738
vt 0.375000 0.750000
vt 0.625000 0.461414
vt 0.375000 0.500000
vt 0.375000 0.461414
vt 0.625000 0.579181
vt 0.375000 0.579181
vt 0.336414 0.579181
vt 0.625000 0.000000
vt 0.375000 0.070262
vt 0.375000 0.000000
vt 0.875000 0.579181
vt 0.836853 0.579181
vt 0.875000 0.545457
vt 0.836853 0.545457
vt 0.375000 0.545457
vt 0.336414 0.545457
vt 0.625000 0.545457
vt 0.625000 0.070262
vt 0.375000 0.170819
vt 0.625000 0.522255
vt 0.375000 0.522255
vt 0.336414 0.522255
vt 0.875000 0.522255
vt 0.836853 0.522255
vt 0.625000 0.170819
vt 0.375000 0.204543
vt 0.805975 0.522255
vt 0.805975 0.545457
vt 0.163147 0.522255
vt 0.125000 0.545457
vt 0.125000 0.522255
vt 0.163147 0.545457
vt 0.125000 0.579181
vt 0.805975 0.579181
vt 0.805975 0.679738
vt 0.163147 0.579181
vt 0.125000 0.679738
vt 0.625000 0.250000
vt 0.375000 0.288147
vt 0.163147 0.679738
vt 0.125000 0.750000
vt 0.625000 0.930975
vt 0.375000 0.930975
vt 0.805975 0.750000
vt 0.663586 0.679738
vt 0.625000 0.750000
vt 0.375000 0.788586
vt 0.663586 0.579181
vt 0.663586 0.545457
vt 0.663586 0.522255
vt 0.307118 0.545457
vt 0.307118 0.522255
vt 0.307118 0.579181
vt 0.307118 0.679738
vt 0.625000 0.432118
vt 0.375000 0.432118
vt 0.307118 0.750000
vt 0.194025 0.679738
vt 0.163147 0.750000
vt 0.625000 0.288147
vt 0.375000 0.319025
vt 0.194025 0.579181
vt 0.194025 0.545457
vt 0.194025 0.522255
vt 0.692882 0.750000
vt 0.692882 0.679738
vt 0.625000 0.817882
vt 0.375000 0.817882
vt 0.805975 0.579181
vt 0.692882 0.679738
vt 0.692882 0.579181
vt 0.692882 0.579181
vt 0.692882 0.545457
vt 0.692882 0.522255
vt 0.625000 0.788586
vt 0.663586 0.750000
vt 0.194025 0.750000
vt 0.625000 0.319025
vt 0.307118 0.500000
vt 0.194025 0.500000
vt 0.692882 0.500000
vt 0.663586 0.500000
vt 0.805975 0.500000
vt 0.163147 0.500000
vt 0.336414 0.500000
vt 0.625000 0.500000
vt 0.125000 0.500000
vt 0.875000 0.500000
vt 0.836853 0.500000
vt 0.625000 0.204543
vt 0.805975 0.679738
vt 0.875000 0.750000
vt 0.625000 1.000000
vn 0.0000 1.0000 0.0000
vn 0.0000 0.0000 1.0000
vn -1.0000 0.0000 0.0000
vn 0.0000 -1.0000 0.0000
vn 1.0000 0.0000 0.0000
vn 0.0000 0.0000 -1.0000
vn -0.5026 0.8645 0.0000
vn -0.7375 -0.0058 0.6753
vn 0.0000 -0.0085 1.0000
vn 0.5224 0.8527 0.0000
vn 0.0000 0.9652 -0.2617
vn -0.4893 0.8417 -0.2282
vn 0.0000 0.8989 -0.4382
vn 0.7549 -0.0056 0.6558
vn 0.5090 0.8308 -0.2252
usemtl Material
s off
f 11/1/1 22/2/1 26/3/1
f 22/4/2 8/5/2 23/6/2
f 61/7/3 6/8/3 63/9/3
f 12/10/4 31/11/4 38/12/4
f 10/13/5 4/14/5 12/10/5
f 32/15/6 2/16/6 36/17/6
f 16/18/5 12/10/5 14/19/5
f 14/19/4 38/12/4 39/20/4
f 7/21/3 9/22/3 8/23/3
f 13/24/1 26/3/1 27/25/1
f 17/26/1 27/25/1 30/27/1
f 18/28/4 39/20/4 40/29/4
f 20/30/5 14/19/5 18/28/5
f 11/31/3 15/32/3 9/22/3
f 64/33/5 18/28/5 62/34/5
f 62/34/4 40/29/4 68/35/4
f 61/36/1 30/27/1 65/37/1
f 13/38/3 19/39/3 15/32/3
f 70/40/7 30/27/7 50/41/7
f 66/42/4 19/43/4 63/44/4
f 29/45/4 15/46/4 19/43/4
f 30/27/8 73/47/8 50/41/8
f 73/47/1 26/3/1 74/48/1
f 28/49/4 9/50/4 15/46/4
f 5/51/6 21/52/6 6/8/6
f 25/53/4 8/54/4 9/50/4
f 42/55/2 23/6/2 46/56/2
f 74/48/1 22/2/1 42/57/1
f 33/58/1 3/59/1 10/13/1
f 3/59/2 31/60/2 4/14/2
f 34/61/1 10/13/1 16/18/1
f 35/62/1 16/18/1 20/30/1
f 67/63/1 20/30/1 64/33/1
f 68/35/4 60/64/4 72/65/4
f 40/29/4 59/66/4 60/64/4
f 39/20/4 58/67/4 59/66/4
f 52/68/6 36/17/6 56/69/6
f 38/12/4 51/70/4 58/67/4
f 43/71/4 23/72/4 25/53/4
f 24/73/6 41/74/6 21/52/6
f 44/75/4 25/53/4 28/49/4
f 45/76/4 28/49/4 29/45/4
f 69/77/4 29/45/4 66/42/4
f 74/48/1 57/78/1 75/79/1
f 57/80/2 46/56/2 51/81/2
f 49/82/1 53/83/1 54/84/1
f 50/41/9 76/85/9 55/86/9
f 70/40/1 55/86/1 71/87/1
f 71/87/10 35/62/10 67/63/10
f 35/62/1 76/85/1 34/61/1
f 76/85/1 33/58/1 34/61/1
f 37/88/2 51/81/2 31/60/2
f 75/79/1 37/89/1 33/58/1
f 58/67/4 46/90/4 43/71/4
f 47/91/6 56/69/6 41/74/6
f 59/66/4 43/71/4 44/75/4
f 60/64/4 44/75/4 45/76/4
f 72/65/4 45/76/4 69/77/4
f 56/92/4 69/77/4 41/93/4
f 52/94/1 67/63/1 32/95/1
f 47/96/11 71/87/11 52/94/11
f 41/93/4 66/42/4 21/97/4
f 36/98/4 72/65/4 56/92/4
f 32/95/1 64/33/1 1/99/1
f 21/97/4 63/44/4 6/100/4
f 47/96/12 65/37/12 70/40/12
f 5/101/1 65/37/1 24/102/1
f 2/16/4 68/35/4 36/98/4
f 1/99/5 62/34/5 2/16/5
f 17/103/3 63/9/3 19/39/3
f 48/104/5 73/47/5 74/48/5
f 48/104/13 75/79/13 53/83/13
f 54/84/2 73/47/2 49/82/2
f 53/83/3 76/85/3 54/84/3
f 11/1/1 7/105/1 22/2/1
f 22/4/2 7/106/2 8/5/2
f 61/7/3 5/51/3 6/8/3
f 12/10/4 4/14/4 31/11/4
f 10/13/5 3/59/5 4/14/5
f 32/15/6 1/99/6 2/16/6
f 16/18/5 10/13/5 12/10/5
f 14/19/4 12/10/4 38/12/4
f 7/21/3 11/31/3 9/22/3
f 13/24/1 11/1/1 26/3/1
f 17/26/1 13/24/1 27/25/1
f 18/28/4 14/19/4 39/20/4
f 20/30/5 16/18/5 14/19/5
f 11/31/3 13/38/3 15/32/3
f 64/33/5 20/30/5 18/28/5
f 62/34/4 18/28/4 40/29/4
f 61/36/1 17/26/1 30/27/1
f 13/38/3 17/103/3 19/39/3
f 70/40/7 65/37/7 30/27/7
f 66/42/4 29/45/4 19/43/4
f 29/45/4 28/49/4 15/46/4
f 30/27/1 27/25/1 73/47/1
f 73/47/1 27/25/1 26/3/1
f 28/49/4 25/53/4 9/50/4
f 5/51/6 24/73/6 21/52/6
f 25/53/4 23/72/4 8/54/4
f 42/55/2 22/4/2 23/6/2
f 74/48/1 26/3/1 22/2/1
f 33/58/1 37/89/1 3/59/1
f 3/59/2 37/88/2 31/60/2
f 34/61/1 33/58/1 10/13/1
f 35/62/1 34/61/1 16/18/1
f 67/63/1 35/62/1 20/30/1
f 68/35/4 40/29/4 60/64/4
f 40/29/4 39/20/4 59/66/4
f 39/20/4 38/12/4 58/67/4
f 52/68/6 32/15/6 36/17/6
f 38/12/4 31/11/4 51/70/4
f 43/71/4 46/90/4 23/72/4
f 24/73/6 47/91/6 41/74/6
f 44/75/4 43/71/4 25/53/4
f 45/76/4 44/75/4 28/49/4
f 69/77/4 45/76/4 29/45/4
f 74/48/1 42/57/1 57/78/1
f 57/80/2 42/55/2 46/56/2
f 49/82/1 48/104/1 53/83/1
f 50/41/9 73/47/9 76/85/9
f 70/40/1 50/41/1 55/86/1
f 71/87/10 55/86/10 35/62/10
f 35/62/14 55/86/14 76/85/14
f 76/85/1 75/79/1 33/58/1
f 37/88/2 57/80/2 51/81/2
f 75/79/1 57/78/1 37/89/1
f 58/67/4 51/70/4 46/90/4
f 47/91/6 52/68/6 56/69/6
f 59/66/4 58/67/4 43/71/4
f 60/64/4 59/66/4 44/75/4
f 72/65/4 60/64/4 45/76/4
f 56/92/4 72/65/4 69/77/4
f 52/94/15 71/87/15 67/63/15
f 47/96/11 70/40/11 71/87/11
f 41/93/4 69/77/4 66/42/4
f 36/98/4 68/35/4 72/65/4
f 32/95/1 67/63/1 64/33/1
f 21/97/4 66/42/4 63/44/4
f 47/96/1 24/102/1 65/37/1
f 5/101/1 61/36/1 65/37/1
f 2/16/4 62/34/4 68/35/4
f 1/99/5 64/33/5 62/34/5
f 17/103/3 61/7/3 63/9/3
f 48/104/5 49/82/5 73/47/5
f 48/104/13 74/48/13 75/79/13
f 54/84/2 76/85/2 73/47/2
f 53/83/3 75/79/3 76/85/3
