# Blender v2.92.0 OBJ File: 'map.blend'
# www.blender.org
mtllib map.mtl
o 立方体.001
v 40.279251 -0.886240 -1.042002
v 54.934620 12.723322 -1.042002
v 58.543278 -20.553747 -1.042002
v 73.198647 -6.944187 -1.042002
v 40.279251 -0.886240 18.957998
v 54.934620 12.723322 18.957998
v 58.543278 -20.553747 18.957998
v 73.198647 -6.944187 18.957998
v -30.000004 -0.118857 60.000008
v -30.000004 19.881144 60.000008
v -30.000004 -0.118857 40.000000
v -30.000004 19.881144 40.000000
v 29.999992 -0.118857 60.000008
v 29.999994 19.881144 60.000008
v 29.999992 -0.118857 40.000004
v 29.999994 19.881144 40.000000
v -100.000000 -0.000006 100.000023
v 99.999985 0.000001 100.000008
v -100.000000 -0.000014 -100.000015
v 99.999985 0.000003 -100.000015
vt 0.375000 0.000000
vt 0.625000 0.000000
vt 0.625000 0.250000
vt 0.375000 0.250000
vt 0.625000 0.500000
vt 0.375000 0.500000
vt 0.625000 0.750000
vt 0.375000 0.750000
vt 0.625000 1.000000
vt 0.375000 1.000000
vt 0.125000 0.500000
vt 0.125000 0.750000
vt 0.875000 0.500000
vt 0.875000 0.750000
vt 0.375000 0.000000
vt 0.625000 0.000000
vt 0.625000 0.250000
vt 0.375000 0.250000
vt 0.625000 0.500000
vt 0.375000 0.500000
vt 0.625000 0.750000
vt 0.375000 0.750000
vt 0.625000 1.000000
vt 0.375000 1.000000
vt 0.125000 0.500000
vt 0.125000 0.750000
vt 0.875000 0.500000
vt 0.875000 0.750000
vt 0.000000 0.000000
vt 1.000000 0.000000
vt 1.000000 1.000000
vt 0.000000 1.000000
vn 0.0000 0.0000 -1.0000
vn 0.6805 -0.7328 0.0000
vn 0.0000 0.0000 1.0000
vn -0.6805 0.7328 0.0000
vn -0.7328 -0.6805 0.0000
vn 0.7328 0.6805 0.0000
vn -1.0000 0.0000 0.0000
vn 1.0000 -0.0000 0.0000
vn 0.0000 -1.0000 0.0000
vn 0.0000 1.0000 0.0000
usemtl None
s off
f 1/1/1 2/2/1 4/3/1 3/4/1
f 3/4/2 4/3/2 8/5/2 7/6/2
f 7/6/3 8/5/3 6/7/3 5/8/3
f 5/8/4 6/7/4 2/9/4 1/10/4
f 3/11/5 7/6/5 5/8/5 1/12/5
f 8/5/6 4/13/6 2/14/6 6/7/6
f 9/15/7 10/16/7 12/17/7 11/18/7
f 11/18/1 12/17/1 16/19/1 15/20/1
f 15/20/8 16/19/8 14/21/8 13/22/8
f 13/22/3 14/21/3 10/23/3 9/24/3
f 11/25/9 15/20/9 13/22/9 9/26/9
f 16/19/10 12/27/10 10/28/10 14/21/10
f 17/29/10 18/30/10 20/31/10 19/32/10
