# Blender v2.92.0 OBJ File: 'map.blend'
# www.blender.org
mtllib map.mtl
o 立方体.001
v 40.279251 -0.886240 -1.042002
v 54.934620 12.723322 -1.042002
v 58.543278 -20.553747 -1.042002
v 73.198647 -6.944187 -1.042002
v 40.279251 -0.886240 18.957998
v 54.934620 12.723322 18.957998
v 58.543278 -20.553747 18.957998
v 73.198647 -6.944187 18.957998
v -30.000004 -0.118857 60.000008
v -30.000004 19.881144 60.000008
v -30.000004 -0.118857 40.000000
v -30.000004 19.881144 40.000000
v 29.999992 -0.118857 60.000008
v 29.999994 19.881144 60.000008
v 29.999992 -0.118857 40.000004
v 29.999994 19.881144 40.000000
v -100.000000 -0.000006 100.000023
v 99.999985 0.000001 100.000008
v -100.000000 -0.000014 -100.000015
v 99.999985 0.000003 -100.000015
v -99.984161 -5.194502 99.529938
v -99.984146 14.805498 99.529938
v -99.984146 -5.194502 -99.529930
v -99.984131 14.805490 -99.529930
v -89.625549 -5.194502 99.529938
v -89.625549 14.805506 99.529938
v -89.625549 -5.194510 -99.529930
v -89.625549 14.805498 -99.529930
v 89.355759 -5.194501 99.529938
v 89.355759 14.805500 99.529938
v 89.355759 -5.194502 -99.529930
v 89.355759 14.805498 -99.529930
v 99.714363 -5.194502 99.529938
v 99.714363 14.805498 99.529938
v 99.714355 -5.194500 -99.529930
v 99.714363 14.805502 -99.529930
v 101.559265 -5.194506 -93.273125
v 101.559265 14.805494 -93.273125
v -97.434479 -5.194510 -88.144218
v -97.434479 14.805490 -88.144218
v 101.292374 -5.194502 -103.628288
v 101.292374 14.805500 -103.628288
v -97.701385 -5.194510 -98.499390
v -97.701385 14.805490 -98.499390
v 101.559265 -5.194506 101.364120
v 101.559265 14.805494 101.364120
v -97.434494 -5.194510 106.493019
v -97.434494 14.805490 106.493019
v 101.292374 -5.194500 91.008949
v 101.292374 14.805498 91.008949
v -97.701385 -5.194502 96.137856
v -97.701385 14.805498 96.137856
vt 0.375000 0.000000
vt 0.625000 0.000000
vt 0.625000 0.250000
vt 0.375000 0.250000
vt 0.625000 0.500000
vt 0.375000 0.500000
vt 0.625000 0.750000
vt 0.375000 0.750000
vt 0.625000 1.000000
vt 0.375000 1.000000
vt 0.125000 0.500000
vt 0.125000 0.750000
vt 0.875000 0.500000
vt 0.875000 0.750000
vt 0.375000 0.000000
vt 0.625000 0.000000
vt 0.625000 0.250000
vt 0.375000 0.250000
vt 0.625000 0.500000
vt 0.375000 0.500000
vt 0.625000 0.750000
vt 0.375000 0.750000
vt 0.625000 1.000000
vt 0.375000 1.000000
vt 0.125000 0.500000
vt 0.125000 0.750000
vt 0.875000 0.500000
vt 0.875000 0.750000
vt 0.000000 0.000000
vt 1.000000 0.000000
vt 1.000000 1.000000
vt 0.000000 1.000000
vt 0.375000 0.000000
vt 0.625000 0.000000
vt 0.625000 0.250000
vt 0.375000 0.250000
vt 0.625000 0.500000
vt 0.375000 0.500000
vt 0.625000 0.750000
vt 0.375000 0.750000
vt 0.625000 1.000000
vt 0.375000 1.000000
vt 0.125000 0.500000
vt 0.125000 0.750000
vt 0.875000 0.500000
vt 0.875000 0.750000
vt 0.375000 0.000000
vt 0.625000 0.000000
vt 0.625000 0.250000
vt 0.375000 0.250000
vt 0.625000 0.500000
vt 0.375000 0.500000
vt 0.625000 0.750000
vt 0.375000 0.750000
vt 0.625000 1.000000
vt 0.375000 1.000000
vt 0.125000 0.500000
vt 0.125000 0.750000
vt 0.875000 0.500000
vt 0.875000 0.750000
vt 0.375000 0.000000
vt 0.625000 0.000000
vt 0.625000 0.250000
vt 0.375000 0.250000
vt 0.625000 0.500000
vt 0.375000 0.500000
vt 0.625000 0.750000
vt 0.375000 0.750000
vt 0.625000 1.000000
vt 0.375000 1.000000
vt 0.125000 0.500000
vt 0.125000 0.750000
vt 0.875000 0.500000
vt 0.875000 0.750000
vt 0.375000 0.000000
vt 0.625000 0.000000
vt 0.625000 0.250000
vt 0.375000 0.250000
vt 0.625000 0.500000
vt 0.375000 0.500000
vt 0.625000 0.750000
vt 0.375000 0.750000
vt 0.625000 1.000000
vt 0.375000 1.000000
vt 0.125000 0.500000
vt 0.125000 0.750000
vt 0.875000 0.500000
vt 0.875000 0.750000
vn 0.0000 0.0000 -1.0000
vn 0.6805 -0.7328 0.0000
vn 0.0000 0.0000 1.0000
vn -0.6805 0.7328 0.0000
vn -0.7328 -0.6805 0.0000
vn 0.7328 0.6805 0.0000
vn -1.0000 0.0000 0.0000
vn 1.0000 -0.0000 0.0000
vn 0.0000 -1.0000 0.0000
vn 0.0000 1.0000 0.0000
vn 0.0258 0.0000 0.9997
vn -0.9997 0.0000 0.0258
vn -0.0258 0.0000 -0.9997
vn 0.9997 0.0000 -0.0258
usemtl None
s off
f 1/1/1 2/2/1 4/3/1 3/4/1
f 3/4/2 4/3/2 8/5/2 7/6/2
f 7/6/3 8/5/3 6/7/3 5/8/3
f 5/8/4 6/7/4 2/9/4 1/10/4
f 3/11/5 7/6/5 5/8/5 1/12/5
f 8/5/6 4/13/6 2/14/6 6/7/6
f 9/15/7 10/16/7 12/17/7 11/18/7
f 11/18/1 12/17/1 16/19/1 15/20/1
f 15/20/8 16/19/8 14/21/8 13/22/8
f 13/22/3 14/21/3 10/23/3 9/24/3
f 11/25/9 15/20/9 13/22/9 9/26/9
f 16/19/10 12/27/10 10/28/10 14/21/10
f 17/29/10 18/30/10 20/31/10 19/32/10
f 21/33/7 22/34/7 24/35/7 23/36/7
f 23/36/1 24/35/1 28/37/1 27/38/1
f 27/38/8 28/37/8 26/39/8 25/40/8
f 25/40/3 26/39/3 22/41/3 21/42/3
f 23/43/9 27/38/9 25/40/9 21/44/9
f 28/37/10 24/45/10 22/46/10 26/39/10
f 29/47/7 30/48/7 32/49/7 31/50/7
f 31/50/1 32/49/1 36/51/1 35/52/1
f 35/52/8 36/51/8 34/53/8 33/54/8
f 33/54/3 34/53/3 30/55/3 29/56/3
f 31/57/9 35/52/9 33/54/9 29/58/9
f 36/51/10 32/59/10 30/60/10 34/53/10
f 37/61/11 38/62/11 40/63/11 39/64/11
f 39/64/12 40/63/12 44/65/12 43/66/12
f 43/66/13 44/65/13 42/67/13 41/68/13
f 41/68/14 42/67/14 38/69/14 37/70/14
f 39/71/9 43/66/9 41/68/9 37/72/9
f 44/65/10 40/73/10 38/74/10 42/67/10
f 45/75/11 46/76/11 48/77/11 47/78/11
f 47/78/12 48/77/12 52/79/12 51/80/12
f 51/80/13 52/79/13 50/81/13 49/82/13
f 49/82/14 50/81/14 46/83/14 45/84/14
f 47/85/9 51/80/9 49/82/9 45/86/9
f 52/79/10 48/87/10 46/88/10 50/81/10
