# Blender 3.3.1
# www.blender.org
mtllib text04M.mtl
o テキスト
v 0.611000 0.050000 0.000000
v 0.611000 0.050000 -0.531000
v 0.609000 0.050000 -0.531000
v 0.399000 0.050000 -0.267000
v 0.383000 0.050000 -0.267000
v 0.173000 0.050000 -0.531000
v 0.171000 0.050000 -0.531000
v 0.171000 0.050000 0.000000
v 0.073000 0.050000 0.000000
v 0.073000 0.050000 -0.682000
v 0.165000 0.050000 -0.682000
v 0.391000 0.050000 -0.402000
v 0.618000 0.050000 -0.682000
v 0.709000 0.050000 -0.682000
v 0.709000 0.050000 0.000000
v 0.611000 -0.050000 0.000000
v 0.611000 -0.050000 -0.531000
v 0.609000 -0.050000 -0.531000
v 0.399000 -0.050000 -0.267000
v 0.383000 -0.050000 -0.267000
v 0.173000 -0.050000 -0.531000
v 0.171000 -0.050000 -0.531000
v 0.171000 -0.050000 0.000000
v 0.073000 -0.050000 0.000000
v 0.073000 -0.050000 -0.682000
v 0.165000 -0.050000 -0.682000
v 0.391000 -0.050000 -0.402000
v 0.618000 -0.050000 -0.682000
v 0.709000 -0.050000 -0.682000
v 0.709000 -0.050000 0.000000
v 0.611000 -0.050000 0.000000
v 0.606671 -0.045671 0.004329
v 0.602836 -0.041836 0.008164
v 0.599164 -0.038164 0.011836
v 0.595329 -0.034329 0.015671
v 0.591000 -0.030000 0.020000
v 0.591000 0.030000 0.020000
v 0.595329 0.034329 0.015671
v 0.599164 0.038164 0.011836
v 0.602836 0.041836 0.008164
v 0.606671 0.045671 0.004329
v 0.611000 0.050000 0.000000
v 0.611000 -0.050000 -0.531000
v 0.606671 -0.045671 -0.526671
v 0.602836 -0.041836 -0.522836
v 0.599164 -0.038164 -0.519164
v 0.595329 -0.034329 -0.515329
v 0.591000 -0.030000 -0.511000
v 0.591000 0.030000 -0.511000
v 0.595329 0.034329 -0.515329
v 0.599164 0.038164 -0.519164
v 0.602836 0.041836 -0.522836
v 0.606671 0.045671 -0.526671
v 0.611000 0.050000 -0.531000
v 0.609000 -0.050000 -0.531000
v 0.611088 -0.045671 -0.526671
v 0.612938 -0.041836 -0.522836
v 0.614709 -0.038164 -0.519164
v 0.616559 -0.034329 -0.515329
v 0.618647 -0.030000 -0.511000
v 0.618647 0.030000 -0.511000
v 0.616559 0.034329 -0.515329
v 0.614709 0.038164 -0.519164
v 0.612938 0.041836 -0.522836
v 0.611088 0.045671 -0.526671
v 0.609000 0.050000 -0.531000
v 0.399000 -0.050000 -0.267000
v 0.401088 -0.045671 -0.262671
v 0.402938 -0.041836 -0.258836
v 0.404709 -0.038164 -0.255164
v 0.406559 -0.034329 -0.251329
v 0.408647 -0.030000 -0.247000
v 0.408647 0.030000 -0.247000
v 0.406559 0.034329 -0.251329
v 0.404709 0.038164 -0.255164
v 0.402938 0.041836 -0.258836
v 0.401088 0.045671 -0.262671
v 0.399000 0.050000 -0.267000
v 0.383000 -0.050000 -0.267000
v 0.380912 -0.045671 -0.262671
v 0.379062 -0.041836 -0.258836
v 0.377291 -0.038164 -0.255164
v 0.375441 -0.034329 -0.251329
v 0.373353 -0.030000 -0.247000
v 0.373353 0.030000 -0.247000
v 0.375441 0.034329 -0.251329
v 0.377291 0.038164 -0.255164
v 0.379062 0.041836 -0.258836
v 0.380912 0.045671 -0.262671
v 0.383000 0.050000 -0.267000
v 0.173000 -0.050000 -0.531000
v 0.170912 -0.045671 -0.526671
v 0.169062 -0.041836 -0.522836
v 0.167291 -0.038164 -0.519164
v 0.165441 -0.034329 -0.515329
v 0.163353 -0.030000 -0.511000
v 0.163353 0.030000 -0.511000
v 0.165441 0.034329 -0.515329
v 0.167291 0.038164 -0.519164
v 0.169062 0.041836 -0.522836
v 0.170912 0.045671 -0.526671
v 0.173000 0.050000 -0.531000
v 0.171000 -0.050000 -0.531000
v 0.175329 -0.045671 -0.526671
v 0.179164 -0.041836 -0.522836
v 0.182836 -0.038164 -0.519164
v 0.186671 -0.034329 -0.515329
v 0.191000 -0.030000 -0.511000
v 0.191000 0.030000 -0.511000
v 0.186671 0.034329 -0.515329
v 0.182836 0.038164 -0.519164
v 0.179164 0.041836 -0.522836
v 0.175329 0.045671 -0.526671
v 0.171000 0.050000 -0.531000
v 0.171000 -0.050000 0.000000
v 0.175329 -0.045671 0.004329
v 0.179164 -0.041836 0.008164
v 0.182836 -0.038164 0.011836
v 0.186671 -0.034329 0.015671
v 0.191000 -0.030000 0.020000
v 0.191000 0.030000 0.020000
v 0.186671 0.034329 0.015671
v 0.182836 0.038164 0.011836
v 0.179164 0.041836 0.008164
v 0.175329 0.045671 0.004329
v 0.171000 0.050000 0.000000
v 0.073000 -0.050000 0.000000
v 0.068671 -0.045671 0.004329
v 0.064836 -0.041836 0.008164
v 0.061164 -0.038164 0.011836
v 0.057329 -0.034329 0.015671
v 0.053000 -0.030000 0.020000
v 0.053000 0.030000 0.020000
v 0.057329 0.034329 0.015671
v 0.061164 0.038164 0.011836
v 0.064836 0.041836 0.008164
v 0.068671 0.045671 0.004329
v 0.073000 0.050000 0.000000
v 0.073000 -0.050000 -0.682000
v 0.068671 -0.045671 -0.686329
v 0.064836 -0.041836 -0.690164
v 0.061164 -0.038164 -0.693836
v 0.057329 -0.034329 -0.697671
v 0.053000 -0.030000 -0.702000
v 0.053000 0.030000 -0.702000
v 0.057329 0.034329 -0.697671
v 0.061164 0.038164 -0.693836
v 0.064836 0.041836 -0.690164
v 0.068671 0.045671 -0.686329
v 0.073000 0.050000 -0.682000
v 0.165000 -0.050000 -0.682000
v 0.167069 -0.045671 -0.686329
v 0.168902 -0.041836 -0.690164
v 0.170657 -0.038164 -0.693836
v 0.172490 -0.034329 -0.697671
v 0.174559 -0.030000 -0.702000
v 0.174559 0.030000 -0.702000
v 0.172490 0.034329 -0.697671
v 0.170657 0.038164 -0.693836
v 0.168902 0.041836 -0.690164
v 0.167069 0.045671 -0.686329
v 0.165000 0.050000 -0.682000
v 0.391000 -0.050000 -0.402000
v 0.391007 -0.045671 -0.408883
v 0.391014 -0.041836 -0.414982
v 0.391020 -0.038164 -0.420819
v 0.391027 -0.034329 -0.426918
v 0.391034 -0.030000 -0.433801
v 0.391034 0.030000 -0.433801
v 0.391027 0.034329 -0.426918
v 0.391020 0.038164 -0.420819
v 0.391014 0.041836 -0.414982
v 0.391007 0.045671 -0.408883
v 0.391000 0.050000 -0.402000
v 0.618000 -0.050000 -0.682000
v 0.615937 -0.045671 -0.686329
v 0.614109 -0.041836 -0.690164
v 0.612359 -0.038164 -0.693836
v 0.610531 -0.034329 -0.697671
v 0.608467 -0.030000 -0.702000
v 0.608467 0.030000 -0.702000
v 0.610531 0.034329 -0.697671
v 0.612359 0.038164 -0.693836
v 0.614109 0.041836 -0.690164
v 0.615937 0.045671 -0.686329
v 0.618000 0.050000 -0.682000
v 0.709000 -0.050000 -0.682000
v 0.713329 -0.045671 -0.686329
v 0.717164 -0.041836 -0.690164
v 0.720836 -0.038164 -0.693836
v 0.724671 -0.034329 -0.697671
v 0.729000 -0.030000 -0.702000
v 0.729000 0.030000 -0.702000
v 0.724671 0.034329 -0.697671
v 0.720836 0.038164 -0.693836
v 0.717164 0.041836 -0.690164
v 0.713329 0.045671 -0.686329
v 0.709000 0.050000 -0.682000
v 0.709000 -0.050000 0.000000
v 0.713329 -0.045671 0.004329
v 0.717164 -0.041836 0.008164
v 0.720836 -0.038164 0.011836
v 0.724671 -0.034329 0.015671
v 0.729000 -0.030000 0.020000
v 0.729000 0.030000 0.020000
v 0.724671 0.034329 0.015671
v 0.720836 0.038164 0.011836
v 0.717164 0.041836 0.008164
v 0.713329 0.045671 0.004329
v 0.709000 0.050000 0.000000
vn -0.0000 1.0000 -0.0000
vn -0.0000 -1.0000 -0.0000
vn -0.4082 -0.8165 0.4082
vn -0.7071 -0.0000 -0.7071
vn -0.4083 -0.8165 0.4082
vn -0.6507 -0.3914 0.6507
vn -0.7912 -0.2210 -0.5702
vn -0.6507 0.3914 0.6507
vn -0.7912 0.2210 -0.5702
vn -0.4083 0.8165 0.4082
vn -0.4082 0.8165 0.4082
vn 0.9007 -0.0000 -0.4344
vn 0.9007 -0.0000 -0.4345
vn 0.9453 -0.1927 -0.2633
vn 0.9453 0.1927 -0.2633
vn 0.2907 -0.7430 0.6028
vn 0.2908 -0.7430 0.6028
vn 0.4036 -0.3699 0.8368
vn 0.4036 0.3699 0.8368
vn 0.2907 0.7430 0.6028
vn 0.2908 0.7430 0.6028
vn -0.2907 -0.7430 0.6028
vn -0.2908 -0.7430 0.6028
vn -0.4036 -0.3699 0.8368
vn -0.4036 0.3699 0.8368
vn -0.2907 0.7430 0.6028
vn -0.2908 0.7430 0.6028
vn -0.9007 -0.0000 -0.4344
vn -0.9453 -0.1927 -0.2633
vn -0.9453 0.1927 -0.2633
vn 0.7071 -0.0000 -0.7071
vn 0.7912 -0.2210 -0.5702
vn 0.7912 0.2210 -0.5702
vn 0.4082 -0.8165 0.4082
vn 0.6507 -0.3914 0.6507
vn 0.6507 0.3914 0.6507
vn 0.4082 0.8165 0.4082
vn -0.4082 -0.8165 -0.4082
vn -0.4082 -0.8165 -0.4083
vn -0.6507 -0.3914 -0.6507
vn -0.6507 0.3914 -0.6507
vn -0.4082 0.8165 -0.4083
vn -0.4082 0.8165 -0.4082
vn 0.2889 -0.7425 -0.6044
vn 0.4007 -0.3698 -0.8383
vn 0.4007 0.3698 -0.8383
vn 0.2889 0.7425 -0.6044
vn 0.0006 -0.8465 -0.5324
vn 0.0008 -0.6280 -0.7782
vn 0.0008 0.6280 -0.7782
vn 0.0006 0.8465 -0.5324
vn -0.2883 -0.7423 -0.6049
vn -0.3998 -0.3698 -0.8387
vn -0.3998 0.3698 -0.8387
vn -0.2883 0.7423 -0.6049
vn 0.4082 -0.8165 -0.4082
vn 0.6507 -0.3914 -0.6507
vn 0.6507 0.3914 -0.6507
vn 0.4082 0.8165 -0.4082
vn 0.4082 0.8165 -0.4083
vn 0.4083 -0.8165 0.4082
vn 0.4083 0.8165 0.4082
vt 0.000000 0.000000
vt 0.071429 0.000000
vt 0.142857 0.000000
vt 0.214286 0.000000
vt 0.285714 0.000000
vt 0.357143 0.000000
vt 0.428571 0.000000
vt 0.500000 0.000000
vt 0.571429 0.000000
vt 0.642857 0.000000
vt 0.714286 0.000000
vt 0.785714 0.000000
vt 0.857143 0.000000
vt 0.928571 0.000000
vt 1.000000 0.000000
vt 0.000000 0.000000
vt 0.071429 0.000000
vt 0.142857 0.000000
vt 0.214286 0.000000
vt 0.285714 0.000000
vt 0.357143 0.000000
vt 0.428571 0.000000
vt 0.500000 0.000000
vt 0.571429 0.000000
vt 0.642857 0.000000
vt 0.714286 0.000000
vt 0.785714 0.000000
vt 0.857143 0.000000
vt 0.928571 0.000000
vt 1.000000 0.000000
vt 0.000000 0.000000
vt 1.000000 0.000000
vt 0.000000 0.090909
vt 1.000000 0.090909
vt 0.000000 0.181818
vt 1.000000 0.181818
vt 0.000000 0.272727
vt 1.000000 0.272727
vt 0.000000 0.363636
vt 1.000000 0.363636
vt 0.000000 0.454545
vt 1.000000 0.454545
vt 0.000000 0.545455
vt 1.000000 0.545455
vt 0.000000 0.636364
vt 1.000000 0.636364
vt 0.000000 0.727273
vt 1.000000 0.727273
vt 0.000000 0.818182
vt 1.000000 0.818182
vt 0.000000 0.909091
vt 1.000000 0.909091
vt 0.000000 1.000000
vt 1.000000 1.000000
vt 0.066667 0.000000
vt 0.066667 0.090909
vt 0.066667 0.181818
vt 0.066667 0.272727
vt 0.066667 0.363636
vt 0.066667 0.454545
vt 0.066667 0.545455
vt 0.066667 0.636364
vt 0.066667 0.727273
vt 0.066667 0.818182
vt 0.066667 0.909091
vt 0.066667 1.000000
vt 0.133333 0.000000
vt 0.133333 0.090909
vt 0.133333 0.181818
vt 0.133333 0.272727
vt 0.133333 0.363636
vt 0.133333 0.454545
vt 0.133333 0.545455
vt 0.133333 0.636364
vt 0.133333 0.727273
vt 0.133333 0.818182
vt 0.133333 0.909091
vt 0.133333 1.000000
vt 0.200000 0.000000
vt 0.200000 0.090909
vt 0.200000 0.181818
vt 0.200000 0.272727
vt 0.200000 0.363636
vt 0.200000 0.454545
vt 0.200000 0.545455
vt 0.200000 0.636364
vt 0.200000 0.727273
vt 0.200000 0.818182
vt 0.200000 0.909091
vt 0.200000 1.000000
vt 0.266667 0.000000
vt 0.266667 0.090909
vt 0.266667 0.181818
vt 0.266667 0.272727
vt 0.266667 0.363636
vt 0.266667 0.454545
vt 0.266667 0.545455
vt 0.266667 0.636364
vt 0.266667 0.727273
vt 0.266667 0.818182
vt 0.266667 0.909091
vt 0.266667 1.000000
vt 0.333333 0.000000
vt 0.333333 0.090909
vt 0.333333 0.181818
vt 0.333333 0.272727
vt 0.333333 0.363636
vt 0.333333 0.454545
vt 0.333333 0.545455
vt 0.333333 0.636364
vt 0.333333 0.727273
vt 0.333333 0.818182
vt 0.333333 0.909091
vt 0.333333 1.000000
vt 0.400000 0.000000
vt 0.400000 0.090909
vt 0.400000 0.181818
vt 0.400000 0.272727
vt 0.400000 0.363636
vt 0.400000 0.454545
vt 0.400000 0.545455
vt 0.400000 0.636364
vt 0.400000 0.727273
vt 0.400000 0.818182
vt 0.400000 0.909091
vt 0.400000 1.000000
vt 0.466667 0.000000
vt 0.466667 0.090909
vt 0.466667 0.181818
vt 0.466667 0.272727
vt 0.466667 0.363636
vt 0.466667 0.454545
vt 0.466667 0.545455
vt 0.466667 0.636364
vt 0.466667 0.727273
vt 0.466667 0.818182
vt 0.466667 0.909091
vt 0.466667 1.000000
vt 0.533333 0.000000
vt 0.533333 0.090909
vt 0.533333 0.181818
vt 0.533333 0.272727
vt 0.533333 0.363636
vt 0.533333 0.454545
vt 0.533333 0.545455
vt 0.533333 0.636364
vt 0.533333 0.727273
vt 0.533333 0.818182
vt 0.533333 0.909091
vt 0.533333 1.000000
vt 0.600000 0.000000
vt 0.600000 0.090909
vt 0.600000 0.181818
vt 0.600000 0.272727
vt 0.600000 0.363636
vt 0.600000 0.454545
vt 0.600000 0.545455
vt 0.600000 0.636364
vt 0.600000 0.727273
vt 0.600000 0.818182
vt 0.600000 0.909091
vt 0.600000 1.000000
vt 0.666667 0.000000
vt 0.666667 0.090909
vt 0.666667 0.181818
vt 0.666667 0.272727
vt 0.666667 0.363636
vt 0.666667 0.454545
vt 0.666667 0.545455
vt 0.666667 0.636364
vt 0.666667 0.727273
vt 0.666667 0.818182
vt 0.666667 0.909091
vt 0.666667 1.000000
vt 0.733333 0.000000
vt 0.733333 0.090909
vt 0.733333 0.181818
vt 0.733333 0.272727
vt 0.733333 0.363636
vt 0.733333 0.454545
vt 0.733333 0.545455
vt 0.733333 0.636364
vt 0.733333 0.727273
vt 0.733333 0.818182
vt 0.733333 0.909091
vt 0.733333 1.000000
vt 0.800000 0.000000
vt 0.800000 0.090909
vt 0.800000 0.181818
vt 0.800000 0.272727
vt 0.800000 0.363636
vt 0.800000 0.454545
vt 0.800000 0.545455
vt 0.800000 0.636364
vt 0.800000 0.727273
vt 0.800000 0.818182
vt 0.800000 0.909091
vt 0.800000 1.000000
vt 0.866667 0.000000
vt 0.866667 0.090909
vt 0.866667 0.181818
vt 0.866667 0.272727
vt 0.866667 0.363636
vt 0.866667 0.454545
vt 0.866667 0.545455
vt 0.866667 0.636364
vt 0.866667 0.727273
vt 0.866667 0.818182
vt 0.866667 0.909091
vt 0.866667 1.000000
vt 0.933333 0.000000
vt 0.933333 0.090909
vt 0.933333 0.181818
vt 0.933333 0.272727
vt 0.933333 0.363636
vt 0.933333 0.454545
vt 0.933333 0.545455
vt 0.933333 0.636364
vt 0.933333 0.727273
vt 0.933333 0.818182
vt 0.933333 0.909091
vt 0.933333 1.000000
s 0
usemtl マテリアル
f 9/9/1 11/11/1 10/10/1
f 9/9/1 7/7/1 11/11/1
f 7/7/1 6/6/1 11/11/1
f 6/6/1 12/12/1 11/11/1
f 12/12/1 14/14/1 13/13/1
f 12/12/1 3/3/1 14/14/1
f 3/3/1 2/2/1 14/14/1
f 2/2/1 15/15/1 14/14/1
f 9/9/1 8/8/1 7/7/1
f 5/5/1 12/12/1 6/6/1
f 12/12/1 4/4/1 3/3/1
f 1/1/1 15/15/1 2/2/1
f 5/5/1 4/4/1 12/12/1
f 24/24/2 25/25/2 26/26/2
f 24/24/2 26/26/2 22/22/2
f 22/22/2 26/26/2 21/21/2
f 21/21/2 26/26/2 27/27/2
f 27/27/2 28/28/2 29/29/2
f 27/27/2 29/29/2 18/18/2
f 18/18/2 29/29/2 17/17/2
f 17/17/2 29/29/2 30/30/2
f 24/24/2 22/22/2 23/23/2
f 20/20/2 21/21/2 27/27/2
f 27/27/2 18/18/2 19/19/2
f 16/16/2 17/17/2 30/30/2
f 20/20/2 27/27/2 19/19/2
s 1
f 32/33/3 44/56/4 43/55/4 31/31/3
f 33/35/3 45/57/4 44/56/4 32/33/3
f 34/37/3 46/58/4 45/57/4 33/35/3
f 35/39/5 47/59/4 46/58/4 34/37/3
f 36/41/6 48/60/7 47/59/4 35/39/5
f 37/43/8 49/61/9 48/60/7 36/41/6
f 38/45/10 50/62/4 49/61/9 37/43/8
f 39/47/11 51/63/4 50/62/4 38/45/10
f 40/49/11 52/64/4 51/63/4 39/47/11
f 41/51/11 53/65/4 52/64/4 40/49/11
f 42/53/11 54/66/4 53/65/4 41/51/11
f 44/56/4 56/68/12 55/67/13 43/55/4
f 45/57/4 57/69/12 56/68/12 44/56/4
f 46/58/4 58/70/12 57/69/12 45/57/4
f 47/59/4 59/71/12 58/70/12 46/58/4
f 48/60/7 60/72/14 59/71/12 47/59/4
f 49/61/9 61/73/15 60/72/14 48/60/7
f 50/62/4 62/74/12 61/73/15 49/61/9
f 51/63/4 63/75/12 62/74/12 50/62/4
f 52/64/4 64/76/12 63/75/12 51/63/4
f 53/65/4 65/77/12 64/76/12 52/64/4
f 54/66/4 66/78/13 65/77/12 53/65/4
f 56/68/12 68/80/16 67/79/17 55/67/13
f 57/69/12 69/81/16 68/80/16 56/68/12
f 58/70/12 70/82/16 69/81/16 57/69/12
f 59/71/12 71/83/17 70/82/16 58/70/12
f 60/72/14 72/84/18 71/83/17 59/71/12
f 61/73/15 73/85/19 72/84/18 60/72/14
f 62/74/12 74/86/20 73/85/19 61/73/15
f 63/75/12 75/87/20 74/86/20 62/74/12
f 64/76/12 76/88/20 75/87/20 63/75/12
f 65/77/12 77/89/20 76/88/20 64/76/12
f 66/78/13 78/90/21 77/89/20 65/77/12
f 68/80/16 80/92/22 79/91/22 67/79/17
f 69/81/16 81/93/22 80/92/22 68/80/16
f 70/82/16 82/94/23 81/93/22 69/81/16
f 71/83/17 83/95/22 82/94/23 70/82/16
f 72/84/18 84/96/24 83/95/22 71/83/17
f 73/85/19 85/97/25 84/96/24 72/84/18
f 74/86/20 86/98/26 85/97/25 73/85/19
f 75/87/20 87/99/27 86/98/26 74/86/20
f 76/88/20 88/100/26 87/99/27 75/87/20
f 77/89/20 89/101/26 88/100/26 76/88/20
f 78/90/21 90/102/26 89/101/26 77/89/20
f 80/92/22 92/104/28 91/103/28 79/91/22
f 81/93/22 93/105/28 92/104/28 80/92/22
f 82/94/23 94/106/28 93/105/28 81/93/22
f 83/95/22 95/107/28 94/106/28 82/94/23
f 84/96/24 96/108/29 95/107/28 83/95/22
f 85/97/25 97/109/30 96/108/29 84/96/24
f 86/98/26 98/110/28 97/109/30 85/97/25
f 87/99/27 99/111/28 98/110/28 86/98/26
f 88/100/26 100/112/28 99/111/28 87/99/27
f 89/101/26 101/113/28 100/112/28 88/100/26
f 90/102/26 102/114/28 101/113/28 89/101/26
f 92/104/28 104/116/31 103/115/31 91/103/28
f 93/105/28 105/117/31 104/116/31 92/104/28
f 94/106/28 106/118/31 105/117/31 93/105/28
f 95/107/28 107/119/31 106/118/31 94/106/28
f 96/108/29 108/120/32 107/119/31 95/107/28
f 97/109/30 109/121/33 108/120/32 96/108/29
f 98/110/28 110/122/31 109/121/33 97/109/30
f 99/111/28 111/123/31 110/122/31 98/110/28
f 100/112/28 112/124/31 111/123/31 99/111/28
f 101/113/28 113/125/31 112/124/31 100/112/28
f 102/114/28 114/126/31 113/125/31 101/113/28
f 104/116/31 116/128/34 115/127/34 103/115/31
f 105/117/31 117/129/34 116/128/34 104/116/31
f 106/118/31 118/130/34 117/129/34 105/117/31
f 107/119/31 119/131/34 118/130/34 106/118/31
f 108/120/32 120/132/35 119/131/34 107/119/31
f 109/121/33 121/133/36 120/132/35 108/120/32
f 110/122/31 122/134/37 121/133/36 109/121/33
f 111/123/31 123/135/37 122/134/37 110/122/31
f 112/124/31 124/136/37 123/135/37 111/123/31
f 113/125/31 125/137/37 124/136/37 112/124/31
f 114/126/31 126/138/37 125/137/37 113/125/31
f 116/128/34 128/140/3 127/139/3 115/127/34
f 117/129/34 129/141/3 128/140/3 116/128/34
f 118/130/34 130/142/3 129/141/3 117/129/34
f 119/131/34 131/143/3 130/142/3 118/130/34
f 120/132/35 132/144/6 131/143/3 119/131/34
f 121/133/36 133/145/8 132/144/6 120/132/35
f 122/134/37 134/146/11 133/145/8 121/133/36
f 123/135/37 135/147/11 134/146/11 122/134/37
f 124/136/37 136/148/11 135/147/11 123/135/37
f 125/137/37 137/149/11 136/148/11 124/136/37
f 126/138/37 138/150/11 137/149/11 125/137/37
f 128/140/3 140/152/38 139/151/38 127/139/3
f 129/141/3 141/153/38 140/152/38 128/140/3
f 130/142/3 142/154/38 141/153/38 129/141/3
f 131/143/3 143/155/39 142/154/38 130/142/3
f 132/144/6 144/156/40 143/155/39 131/143/3
f 133/145/8 145/157/41 144/156/40 132/144/6
f 134/146/11 146/158/42 145/157/41 133/145/8
f 135/147/11 147/159/43 146/158/42 134/146/11
f 136/148/11 148/160/43 147/159/43 135/147/11
f 137/149/11 149/161/43 148/160/43 136/148/11
f 138/150/11 150/162/43 149/161/43 137/149/11
f 140/152/38 152/164/44 151/163/44 139/151/38
f 141/153/38 153/165/44 152/164/44 140/152/38
f 142/154/38 154/166/44 153/165/44 141/153/38
f 143/155/39 155/167/44 154/166/44 142/154/38
f 144/156/40 156/168/45 155/167/44 143/155/39
f 145/157/41 157/169/46 156/168/45 144/156/40
f 146/158/42 158/170/47 157/169/46 145/157/41
f 147/159/43 159/171/47 158/170/47 146/158/42
f 148/160/43 160/172/47 159/171/47 147/159/43
f 149/161/43 161/173/47 160/172/47 148/160/43
f 150/162/43 162/174/47 161/173/47 149/161/43
f 152/164/44 164/176/48 163/175/48 151/163/44
f 153/165/44 165/177/48 164/176/48 152/164/44
f 154/166/44 166/178/48 165/177/48 153/165/44
f 155/167/44 167/179/48 166/178/48 154/166/44
f 156/168/45 168/180/49 167/179/48 155/167/44
f 157/169/46 169/181/50 168/180/49 156/168/45
f 158/170/47 170/182/51 169/181/50 157/169/46
f 159/171/47 171/183/51 170/182/51 158/170/47
f 160/172/47 172/184/51 171/183/51 159/171/47
f 161/173/47 173/185/51 172/184/51 160/172/47
f 162/174/47 174/186/51 173/185/51 161/173/47
f 164/176/48 176/188/52 175/187/52 163/175/48
f 165/177/48 177/189/52 176/188/52 164/176/48
f 166/178/48 178/190/52 177/189/52 165/177/48
f 167/179/48 179/191/52 178/190/52 166/178/48
f 168/180/49 180/192/53 179/191/52 167/179/48
f 169/181/50 181/193/54 180/192/53 168/180/49
f 170/182/51 182/194/55 181/193/54 169/181/50
f 171/183/51 183/195/55 182/194/55 170/182/51
f 172/184/51 184/196/55 183/195/55 171/183/51
f 173/185/51 185/197/55 184/196/55 172/184/51
f 174/186/51 186/198/55 185/197/55 173/185/51
f 176/188/52 188/200/56 187/199/56 175/187/52
f 177/189/52 189/201/56 188/200/56 176/188/52
f 178/190/52 190/202/56 189/201/56 177/189/52
f 179/191/52 191/203/56 190/202/56 178/190/52
f 180/192/53 192/204/57 191/203/56 179/191/52
f 181/193/54 193/205/58 192/204/57 180/192/53
f 182/194/55 194/206/59 193/205/58 181/193/54
f 183/195/55 195/207/59 194/206/59 182/194/55
f 184/196/55 196/208/59 195/207/59 183/195/55
f 185/197/55 197/209/59 196/208/59 184/196/55
f 186/198/55 198/210/60 197/209/59 185/197/55
f 188/200/56 200/212/34 199/211/34 187/199/56
f 189/201/56 201/213/34 200/212/34 188/200/56
f 190/202/56 202/214/34 201/213/34 189/201/56
f 191/203/56 203/215/61 202/214/34 190/202/56
f 192/204/57 204/216/35 203/215/61 191/203/56
f 193/205/58 205/217/36 204/216/35 192/204/57
f 194/206/59 206/218/62 205/217/36 193/205/58
f 195/207/59 207/219/37 206/218/62 194/206/59
f 196/208/59 208/220/37 207/219/37 195/207/59
f 197/209/59 209/221/37 208/220/37 196/208/59
f 198/210/60 210/222/37 209/221/37 197/209/59
f 200/212/34 32/34/3 31/32/3 199/211/34
f 201/213/34 33/36/3 32/34/3 200/212/34
f 202/214/34 34/38/3 33/36/3 201/213/34
f 203/215/61 35/40/5 34/38/3 202/214/34
f 204/216/35 36/42/6 35/40/5 203/215/61
f 205/217/36 37/44/8 36/42/6 204/216/35
f 206/218/62 38/46/10 37/44/8 205/217/36
f 207/219/37 39/48/11 38/46/10 206/218/62
f 208/220/37 40/50/11 39/48/11 207/219/37
f 209/221/37 41/52/11 40/50/11 208/220/37
f 210/222/37 42/54/11 41/52/11 209/221/37
